<svg xmlns="http://www.w3.org/2000/svg" viewBox="0 0 120 120">
  <g strokeMiterlimit="10" id="Commodore">
    <g id="inactive_3_" stroke="#3A1772">
      <path fill="#8133FF" stroke-width="2" d="M31 110.229L9.77 89 2 60l7.771-29L31 9.771 60 2l29 7.77 21.23 21.231L118 60l-7.771 28.998L89 110.229 60 118z"/>
      <path fill="#5A24B2" stroke-width="2" d="M60.001 118L9.771 89.001V31L60 2l50.229 29v58.001z"/>
      <path fill="#8133FF" stroke-width="2" d="M13.26 86.985l.001-53.97L60 6.029l46.74 26.986-.001 53.97-46.738 26.986z"/>
      <g fill="#8133FF">
        <g strokeLinecap="round">
          <path d="M48.16 48.471c1.721-1.163 3.256-2.663 4.523-4.465 2.233-3.199 3.281-6.863 3.198-10.492-.419-.303-2.081-.29-2.768-.186l-1.256.174s.15-.64.326-1.419c.186-.79.836-1.931 1.64-2.151.372-.094 1.465-.058 1.616-.047h.012s2.943-.011 3.245-.011c.943 0 2.942-.454 4.002 3.268l1.534 3.931c.187.442.361.896.501 1.361.011.012.011.023.011.035.094.244.233.791.245.814.522 1.641 1.313 3.232 2.349 4.723 1.269 1.814 2.815 3.314 4.548 4.465"/>
          <path d="M55.674 29.885s.196.338.436.75c.24.414.195 1.195-.099 1.739s-.534.989-.534.989"/>
          <path d="M56.546 31.386s.441-.017.982-.036c.541-.019 1.074-.357 1.186-.754.112-.398.205-.722.205-.722"/>
        </g>
        <path d="M72.178 58.545h8.432c4.163 0 7.55-3.419 7.55-7.619V44.424l.979.123c.645.08 1.277.121 1.882.121 6.517 0 12.174-4.18 14.123-10.294H76.016c-1.636 0-2.966 1.331-2.966 2.967 0 .897.407 1.737 1.098 2.291l.593.367.131.089c.717.492 1.284 1.184 1.641 1.996.251.59.376 1.213.376 1.863 0 2.598-2.113 4.71-4.71 4.71"/>
        <path d="M74.761 38.178l1.441 1.105c.698.593 1.268 1.361 1.651 2.244.326.757.488 1.57.488 2.42 0 3.396-2.769 6.164-6.164 6.164v-1.163c0-.642 1.535-1.11 2.713-2.288.694-.695 1.125-1.654 1.125-2.713 0-.535-.104-1.047-.303-1.512-.291-.664-.744-1.221-1.337-1.629-.012 0-.349-.187-.5-.291-1.035-.697-1.698-1.861-1.698-3.175 0-2.117 1.722-3.839 3.838-3.839h26.787c1.928 0 3.37.535 3.16 1.179-.209.644-1.988 1.147-3.916 1.147h-26.03c-.837 0-1.512.674-1.512 1.513 0 .303.094.594.257.838z"/>
        <path d="M76.794 57.158c.308 1.242-.028 2.258-.749 2.258-.72 0-1.455-.968-1.634-2.152-.18-1.182-.032-2.266.326-2.406.358-.143 1.589.422 1.897 1.665l.16.635z"/>
        <path d="M74.411 57.264c.179 1.185-.35 2.152-1.175 2.152-.826 0-1.4-.561-1.28-1.244.122-.686.222-2.348.222-2.373s.271-.13.605-.232c.331-.102 1.448.515 1.628 1.697z"/>
        <path d="M81.588 57.083c.575 1.142.747 2.136.384 2.206-.364.068-1.481.127-1.628.127-.148 0-.654-.974-1.127-2.163l-.668-1.688c-.472-1.188-.628-2.306-.346-2.48.28-.176 1.494.242 2.069 1.387l1.316 2.611z"/>
        <path d="M79.217 57.253c.473 1.189.246 2.163-.503 2.163-.748 0-1.612-1.016-1.92-2.258l-.159-.636c-.309-1.243-.319-2.381-.025-2.532.294-.15 1.468.387 1.939 1.574l.668 1.689z"/>
        <path d="M84.999 55.223c.772 1.021 1.145 2.072.828 2.338-.317.266-1.778-.051-2.44-1.148l-1.773-2.947c-.661-1.096-1.044-2.131-.853-2.301.193-.169 1.318.201 2.092 1.222l2.146 2.836z"/>
        <path d="M83.387 56.412c.662 1.098.916 2.127.567 2.289-.349.164-1.791-.477-2.366-1.618l-1.315-2.612c-.575-1.145-.867-2.213-.65-2.377.216-.162 1.33.275 1.991 1.371l1.773 2.947z"/>
        <path d="M87.182 51.496c.832.973 1.379 2.137 1.216 2.587-.164.451-1.4.694-2.151-.34l-2.048-2.819c-.751-1.035-1.204-2.087-1.007-2.336.199-.25 1.379-.146 2.211.826l1.779 2.082z"/>
        <path d="M86.246 53.743c.751 1.034 1.198 2.11.994 2.392-.205.283-1.469.109-2.241-.912l-2.146-2.837c-.773-1.021-1.192-2.069-.933-2.333.258-.262 1.527-.164 2.278.871l2.048 2.819z"/>
        <path d="M87.134 46.686c1.043.739 1.897 1.797 1.897 2.35 0 .554-.835.375-1.856-.396l-.8-.603c-1.021-.771-1.752-1.596-1.624-1.833.128-.236 1.308-.279 2.352.461l.031.021z"/>
        <path d="M87.175 48.639c1.021.771 1.856 1.602 1.856 1.846 0 .242-.026.799-.058 1.238-.032.438-.96.746-1.792-.227l-1.779-2.082c-.832-.973-1.415-1.918-1.297-2.1.119-.183 1.248-.05 2.27.722l.8.603z"/>
        <path d="M87.352 44.912c.924.353 1.68 1.197 1.68 1.879s-.854.634-1.897-.105l-.031-.021c-1.044-.74-1.827-1.499-1.741-1.688.085-.19 1.064-.416 1.989-.065z"/>
        <path d="M92.551 44.57c1.25.271 1.246.689-.011.931 0 0-.206.04-1.52.04h-.675c-.723-.07-1.314-.098-1.314-.059s-.756-.218-1.68-.57c-.925-.352-1.619-.804-1.542-1.006.076-.201 1.291-.518 2.541-.246l4.201.91z"/>
        <path d="M98.817 41.695c1.276.081 1.894.469 1.369.863-.524.393-2.027 1.26-2.03 1.26-.004 0-1.042-.154-2.307-.344l-7.146-1.068c-1.266-.188-2.3-.346-2.3-.35s.044-.17.099-.373c.054-.2 1.226-.684 2.502-.604l9.813.616z"/>
        <path d="M95.85 43.475c1.265.189 1.816.559 1.225.821s-2.241.768-2.244.768c-.004 0-1.029-.222-2.279-.493l-4.2-.91c-1.25-.271-2.222-.654-2.158-.854.065-.197 1.245-.588 2.511-.4l7.145 1.068z"/>
        <path d="M101.733 38.523c1.279.033 1.92.583 1.425 1.219-.496.637-3.064 2.034-4.341 1.953l-9.813-.615c-1.276-.08-2.249-.555-2.159-1.053s1.291-1.869 2.569-1.834l12.319.33z"/>
        <path d="M103.21 35.828c1.279 0 2.124.427 1.879.948-.246.521-2.076 1.78-3.355 1.747l-12.319-.33c-1.278-.035-2.325-.064-2.325-.067s.024-.341.053-.751c.028-.408 1.1-1.547 2.378-1.547h13.689z"/>
        <path d="M73.499 52.886c.272 1.251.208 2.372-.141 2.489-.348.118-1.181-.669-1.181-1.948v-.989c0-1.279.107-2.328.238-2.332s.692.982.965 2.232l.119.548z"/>
        <path d="M75.704 51.891c.823.98 1.158 1.97.741 2.197l-.371.176-.721.349c-.749.302-1.582-.476-1.854-1.727l-.118-.548c-.272-1.25-.326-2.299-.121-2.331s1.396.639 2.218 1.616l.226.268z"/>
        <path d="M78.24 50.436c1.111.635 1.712 1.398 1.335 1.699l-.349.256-.675.488c-.742.436-2.024-.008-2.848-.988l-.227-.268c-.822-.978-1.225-1.887-.894-2.018.333-.131 2.039-.092 3.15.543l.508.288z"/>
        <path d="M80.344 48.739c1.24.313 1.915.946 1.5 1.407l-.396.385-.384.383c-.441.37-1.713.156-2.824-.479l-.506-.287c-1.111-.635-1.827-1.311-1.591-1.502.237-.192.781-.769.785-.769.003 0 1.021.257 2.261.571l1.155.291z"/>
        <path d="M81.469 46.828c1.274.11 2.314.318 2.312.463-.004.145-.188.759-.396 1.041-.207.281-.775.978-.779.978s-1.021-.257-2.262-.57l-1.154-.29c-1.24-.314-2.114-.768-1.94-1.008.173-.238 1.577-.844 2.852-.732l1.367.118z"/>
        <path d="M83.773 46.133c.007.494-1.03.806-2.305.695l-1.368-.119c-1.274-.111-2.23-.428-2.125-.703.106-.275 1.315-1.14 2.589-1.268l.825-.082c1.274-.127 2.379.986 2.384 1.477z"/>
        <path d="M80.564 44.738c-1.273.128-2.274-.071-2.223-.442v-.349-.385c-.059-.402.932-.879 2.199-1.057l.593-.084c1.267-.179 2.351.012 2.408.42.058.41-.879 1.688-2.152 1.814l-.825.083z"/>
        <path d="M83.273 41.201c.09.494-.873 1.042-2.14 1.221l-.593.084c-1.268.178-2.398-.072-2.513-.559l-.175-.42-.186-.43c-.269-.416.548-.9 1.815-1.074l1.102-.154c1.27-.175 2.602.84 2.69 1.332z"/>
        <path d="M82.663 38.828c.124.398-.811.866-2.078 1.041l-1.102.154c-1.268.174-2.308.318-2.311.318s-.142-.17-.308-.379c-.166-.207-.912-.87-1.216-1.104-.303-.233.486-.559 1.755-.724l2.481-.321c1.27-.163 2.654.62 2.779 1.015z"/>
        <path d="M81.906 36.898c.158.339-.752.752-2.021.915l-2.481.321c-1.269.165-2.309.299-2.313.299-.004 0-.078-.057-.168-.127-.09-.072-.278-.369-.419-.664v-.302-.839c.832-.369 2.559-.674 3.838-.674h.688c1.278.001 2.72.732 2.876 1.071z"/>
        <path d="M84.867 35.828c1.279 0 2.324.238 2.32.529-.003.291-1.087.998-2.365.961l-.421-.014c-1.278-.037-2.436-.299-2.57-.58-.134-.282.571-.896 1.851-.896h1.185z"/>
        <path d="M84.822 37.318c1.278.037 2.317.18 2.307.313-.01.134-.04.491-.04.494s-.019.202-.041.442c-.022.239-1.056.763-2.209.651-1.155-.112-2.263-.675-2.46-1.251l-.188-.454-.034-.093c-.045-.103.966-.154 2.244-.117l.421.015z"/>
        <path d="M84.839 39.22c1.153.111 2.03.663 1.948 1.227l-.104.488-.06.302c-.09.32-.853.582-1.698.582-.844 0-1.603-.357-1.686-.797-.084-.438-.373-1.552-.401-1.65-.028-.101.846-.265 2.001-.152z"/>
        <path d="M84.925 41.818c.846 0 1.426.408 1.292.908l-.14.441-.151.43c-.18.455-.753.839-1.273.855-.521.016-.948.016-.948 0 0-.017-.068-.752-.151-1.635l-.116-.721-.012-.093c-.02-.101.655-.185 1.499-.185z"/>
        <path d="M84.652 44.453c.521-.017.833.242.691.575l-.14.291-.395.839c-.506.818-.938 1.514-.96 1.546s-.077-.124-.063-.419v-.256-.896c-.045-.908.346-1.664.867-1.68z"/>
        <g>
          <path d="M47.822 58.545H39.39c-4.163 0-7.55-3.419-7.55-7.619V44.424l-.979.123c-.645.08-1.277.121-1.882.121-6.517 0-12.174-4.18-14.123-10.294h29.129c1.635 0 2.965 1.331 2.965 2.967 0 .897-.407 1.737-1.098 2.291l-.593.367-.131.089c-.717.492-1.284 1.184-1.641 1.996-.251.59-.376 1.213-.376 1.863 0 2.598 2.113 4.71 4.71 4.71"/>
          <path d="M45.239 38.178l-1.441 1.105c-.698.593-1.268 1.361-1.651 2.244-.326.757-.488 1.57-.488 2.42 0 3.396 2.769 6.164 6.164 6.164v-1.163c0-.642-1.535-1.11-2.713-2.288-.694-.695-1.124-1.654-1.124-2.713 0-.535.104-1.047.302-1.512.291-.664.744-1.221 1.337-1.629.012 0 .349-.187.5-.291 1.035-.697 1.698-1.861 1.698-3.175 0-2.117-1.722-3.839-3.837-3.839H17.197c-1.928 0-3.37.535-3.16 1.179.209.644 1.988 1.147 3.916 1.147h26.032c.836 0 1.511.674 1.511 1.513 0 .303-.094.594-.257.838z"/>
          <path d="M43.206 57.158c-.308 1.242.028 2.258.749 2.258.72 0 1.455-.968 1.634-2.152.18-1.182.032-2.266-.326-2.406-.358-.143-1.589.422-1.897 1.665l-.16.635z"/>
          <path d="M45.589 57.264c-.179 1.185.35 2.152 1.175 2.152.826 0 1.4-.561 1.28-1.244-.122-.686-.222-2.348-.222-2.373s-.271-.13-.605-.232c-.331-.102-1.448.515-1.628 1.697z"/>
          <path d="M38.412 57.083c-.575 1.142-.747 2.136-.384 2.206.364.068 1.482.127 1.628.127.148 0 .654-.974 1.127-2.163l.668-1.688c.472-1.188.628-2.306.346-2.48-.28-.176-1.493.242-2.069 1.387l-1.316 2.611z"/>
          <path d="M40.783 57.253c-.473 1.189-.246 2.163.503 2.163.748 0 1.612-1.016 1.92-2.258l.159-.636c.309-1.243.319-2.381.025-2.532-.294-.15-1.468.387-1.939 1.574l-.668 1.689z"/>
          <path d="M35.001 55.223c-.772 1.021-1.146 2.072-.828 2.338s1.778-.051 2.44-1.148l1.773-2.947c.661-1.096 1.044-2.131.853-2.301-.193-.169-1.318.201-2.092 1.222l-2.146 2.836z"/>
          <path d="M36.613 56.412c-.662 1.098-.916 2.127-.567 2.289.35.164 1.791-.477 2.366-1.618l1.315-2.612c.576-1.145.867-2.213.65-2.377-.216-.162-1.33.275-1.991 1.371l-1.773 2.947z"/>
          <path d="M32.818 51.496c-.832.973-1.379 2.137-1.216 2.587.164.451 1.4.694 2.151-.34l2.048-2.819c.751-1.035 1.204-2.087 1.007-2.336-.199-.25-1.379-.146-2.211.826l-1.779 2.082z"/>
          <path d="M33.754 53.743c-.751 1.034-1.198 2.11-.994 2.392.205.283 1.469.109 2.241-.912l2.146-2.837c.773-1.021 1.192-2.069.933-2.333-.258-.262-1.527-.164-2.278.871l-2.048 2.819z"/>
          <path d="M32.866 46.686c-1.043.739-1.897 1.797-1.897 2.35 0 .554.835.375 1.856-.396l.8-.603c1.021-.771 1.752-1.596 1.624-1.833-.128-.236-1.308-.279-2.352.461l-.031.021z"/>
          <path d="M32.825 48.639c-1.021.771-1.856 1.602-1.856 1.846 0 .242.026.799.058 1.238.032.438.96.746 1.792-.227l1.779-2.082c.832-.973 1.415-1.918 1.297-2.1-.119-.183-1.248-.05-2.27.722l-.8.603z"/>
          <path d="M32.648 44.912c-.924.353-1.68 1.197-1.68 1.879s.854.634 1.897-.105l.031-.021c1.044-.74 1.827-1.499 1.742-1.688-.086-.19-1.065-.416-1.99-.065z"/>
          <path d="M27.449 44.57c-1.249.271-1.246.689.011.931 0 0 .206.04 1.52.04h.676c.722-.07 1.313-.098 1.313-.059s.756-.218 1.68-.57c.925-.352 1.619-.804 1.542-1.006-.076-.201-1.291-.518-2.541-.246l-4.201.91z"/>
          <path d="M21.183 41.695c-1.276.081-1.893.469-1.369.863.524.393 2.027 1.26 2.03 1.26.004 0 1.042-.154 2.307-.344l7.147-1.068c1.265-.188 2.299-.346 2.299-.35s-.044-.17-.099-.373c-.054-.2-1.226-.684-2.502-.604l-9.813.616z"/>
          <path d="M24.15 43.475c-1.265.189-1.816.559-1.225.821s2.241.768 2.244.768c.004 0 1.03-.222 2.279-.493l4.2-.91c1.25-.271 2.222-.654 2.158-.854-.065-.197-1.245-.588-2.51-.4l-7.146 1.068z"/>
          <path d="M18.267 38.523c-1.279.033-1.92.583-1.425 1.219.496.637 3.064 2.034 4.341 1.953l9.813-.615c1.276-.08 2.249-.555 2.159-1.053s-1.291-1.869-2.569-1.834l-12.319.33z"/>
          <path d="M16.79 35.828c-1.279 0-2.124.427-1.879.948.246.521 2.076 1.78 3.355 1.747l12.319-.33c1.278-.035 2.325-.064 2.325-.067s-.024-.341-.053-.751c-.028-.408-1.1-1.547-2.378-1.547H16.79z"/>
          <path d="M46.501 52.886c-.272 1.251-.208 2.372.141 2.489.348.118 1.181-.669 1.181-1.948v-.989c0-1.279-.107-2.328-.238-2.332s-.692.982-.965 2.232l-.119.548z"/>
          <path d="M44.296 51.891c-.823.98-1.158 1.97-.741 2.197l.371.176.721.349c.749.302 1.582-.476 1.854-1.727l.118-.548c.272-1.25.326-2.299.121-2.331s-1.396.639-2.218 1.616l-.226.268z"/>
          <path d="M41.759 50.436c-1.11.635-1.711 1.398-1.334 1.699l.349.256.675.488c.742.436 2.024-.008 2.848-.988l.227-.268c.822-.978 1.225-1.887.894-2.018-.333-.131-2.039-.092-3.15.543l-.509.288z"/>
          <path d="M39.656 48.739c-1.24.313-1.915.946-1.5 1.407l.396.385.384.383c.441.37 1.713.156 2.823-.479l.507-.287c1.111-.635 1.827-1.311 1.591-1.502-.237-.192-.781-.769-.785-.769-.003 0-1.021.257-2.261.571l-1.155.291z"/>
          <path d="M38.531 46.828c-1.274.11-2.314.318-2.312.463.004.145.188.759.396 1.041.207.281.775.978.779.978s1.021-.257 2.262-.57l1.154-.29c1.24-.314 2.114-.768 1.94-1.008-.173-.238-1.577-.844-2.852-.732l-1.367.118z"/>
          <path d="M36.227 46.133c-.007.494 1.03.806 2.305.695l1.368-.119c1.274-.111 2.23-.428 2.125-.703-.106-.275-1.315-1.14-2.589-1.268l-.825-.082c-1.274-.127-2.379.986-2.384 1.477z"/>
          <path d="M39.436 44.738c1.273.128 2.274-.071 2.223-.442v-.349-.385c.059-.402-.932-.879-2.199-1.057l-.593-.084c-1.267-.179-2.351.012-2.408.42-.058.41.879 1.688 2.152 1.814l.825.083z"/>
          <path d="M36.727 41.201c-.09.494.873 1.042 2.14 1.221l.593.084c1.268.178 2.398-.072 2.513-.559l.175-.42.186-.43c.269-.416-.548-.9-1.815-1.074l-1.102-.154c-1.27-.175-2.602.84-2.69 1.332z"/>
          <path d="M37.337 38.828c-.124.398.811.866 2.078 1.041l1.102.154c1.268.174 2.308.318 2.311.318s.142-.17.309-.379c.165-.207.911-.87 1.215-1.104.303-.233-.486-.559-1.755-.724l-2.481-.321c-1.27-.163-2.654.62-2.779 1.015z"/>
          <path d="M38.094 36.898c-.158.339.752.752 2.021.915l2.481.321c1.269.165 2.309.299 2.313.299.004 0 .078-.057.168-.127.09-.072.278-.369.419-.664v-.302-.839c-.831-.369-2.559-.674-3.838-.674h-.688c-1.278.001-2.72.732-2.876 1.071z"/>
          <path d="M35.133 35.828c-1.279 0-2.324.238-2.32.529.003.291 1.087.998 2.365.961l.421-.014c1.278-.037 2.436-.299 2.57-.58.134-.282-.571-.896-1.851-.896h-1.185z"/>
          <path d="M35.178 37.318c-1.278.037-2.317.18-2.307.313.01.134.04.491.04.494s.019.202.041.442c.022.239 1.056.763 2.209.651 1.155-.112 2.263-.675 2.46-1.251l.187-.454.035-.093c.045-.103-.966-.154-2.244-.117l-.421.015z"/>
          <path d="M35.161 39.22c-1.153.111-2.03.663-1.948 1.227l.104.488.06.302c.09.32.853.582 1.698.582.844 0 1.603-.357 1.686-.797.084-.438.373-1.552.401-1.65.028-.101-.846-.265-2.001-.152z"/>
          <path d="M35.075 41.818c-.846 0-1.426.408-1.292.908l.14.441.151.43c.18.455.753.839 1.273.855.521.016.948.016.948 0 0-.017.068-.752.151-1.635l.116-.721.012-.093c.02-.101-.655-.185-1.499-.185z"/>
          <path d="M35.348 44.453c-.521-.017-.833.242-.691.575l.14.291.395.839c.506.818.938 1.514.96 1.546s.077-.124.063-.419v-.256-.896c.045-.908-.346-1.664-.867-1.68z"/>
        </g>
        <g>
          <path d="M59.555 60.277s-.233.252-.645.691c-.415.429-1.019 1.028-1.756 1.728-.743.688-1.612 1.489-2.571 2.305-.474.418-.972.835-1.483 1.246-.512.419-1.024.852-1.554 1.262-1.06.81-2.099 1.655-3.122 2.371-1.021.722-2.012 1.335-2.886 1.822-.879.481-1.638.843-2.186 1.067-.544.231-.878.328-.878.328-.804.233-1.644-.227-1.877-1.029-.146-.504-.015-1.029.298-1.403 0 0 .225-.264.656-.666.431-.412 1.069-.955 1.866-1.563.799-.601 1.764-1.256 2.837-1.896 1.071-.644 2.265-1.25 3.437-1.888.589-.317 1.195-.606 1.782-.906.585-.303 1.169-.586 1.744-.848 1.135-.546 2.219-1.013 3.15-1.412.939-.389 1.73-.697 2.294-.902.568-.194.894-.307.894-.307z"/>
          <path d="M59.555 60.277s-.233.252-.645.691c-.415.429-1.019 1.028-1.756 1.728-.743.688-1.612 1.489-2.571 2.305-.474.418-.972.835-1.483 1.246-.512.419-1.024.852-1.554 1.262-1.06.81-2.099 1.655-3.122 2.371-1.021.722-2.012 1.335-2.886 1.822-.879.481-1.638.843-2.186 1.067-.544.231-.878.328-.878.328-.804.233-1.644-.227-1.877-1.029-.146-.504-.015-1.029.298-1.403 0 0 .225-.264.656-.666.431-.412 1.069-.955 1.866-1.563.799-.601 1.764-1.256 2.837-1.896 1.071-.644 2.265-1.25 3.437-1.888.589-.317 1.195-.606 1.782-.906.585-.303 1.169-.586 1.744-.848 1.135-.546 2.219-1.013 3.15-1.412.939-.389 1.73-.697 2.294-.902.568-.194.894-.307.894-.307z"/>
          <path d="M59.725 60.476s-.162.304-.444.835c-.289.521-.718 1.257-1.248 2.122-.54.858-1.171 1.855-1.888 2.893-.35.526-.722 1.059-1.111 1.589-.387.535-.768 1.086-1.174 1.619-.813 1.057-1.6 2.143-2.401 3.1-.8.959-1.6 1.809-2.316 2.506-.725.692-1.362 1.237-1.835 1.597-.465.364-.762.545-.762.545-.716.433-1.647.207-2.08-.51-.272-.448-.281-.988-.076-1.431 0 0 .148-.315.463-.815.308-.508.784-1.198 1.397-1.992.616-.787 1.378-1.669 2.25-2.565.867-.898 1.863-1.792 2.83-2.714.487-.458.997-.895 1.488-1.335.486-.443.976-.869 1.463-1.27.956-.821 1.883-1.554 2.679-2.181.807-.617 1.492-1.122 1.981-1.465.499-.336.784-.528.784-.528z"/>
          <path d="M59.725 60.476s-.162.304-.444.835c-.289.521-.718 1.257-1.248 2.122-.54.858-1.171 1.855-1.888 2.893-.35.526-.722 1.059-1.111 1.589-.387.535-.768 1.086-1.174 1.619-.813 1.057-1.6 2.143-2.401 3.1-.8.959-1.6 1.809-2.316 2.506-.725.692-1.362 1.237-1.835 1.597-.465.364-.762.545-.762.545-.716.433-1.647.207-2.08-.51-.272-.448-.281-.988-.076-1.431 0 0 .148-.315.463-.815.308-.508.784-1.198 1.397-1.992.616-.787 1.378-1.669 2.25-2.565.867-.898 1.863-1.792 2.83-2.714.487-.458.997-.895 1.488-1.335.486-.443.976-.869 1.463-1.27.956-.821 1.883-1.554 2.679-2.181.807-.617 1.492-1.122 1.981-1.465.499-.336.784-.528.784-.528z"/>
          <path d="M59.939 60.623s-.077.336-.213.92c-.146.579-.368 1.4-.657 2.375-.3.968-.65 2.096-1.074 3.281-.202.6-.423 1.21-.661 1.822-.236.617-.462 1.249-.716 1.868-.512 1.232-.99 2.484-1.518 3.616-.523 1.135-1.074 2.16-1.589 3.02-.521.856-.996 1.548-1.358 2.017-.354.475-.596.724-.596.724-.579.604-1.537.625-2.141.046-.379-.36-.527-.882-.443-1.361 0 0 .063-.342.236-.907.165-.57.447-1.36.833-2.285.393-.922.899-1.97 1.51-3.061.605-1.094 1.337-2.215 2.032-3.354.351-.57.731-1.123 1.09-1.677.356-.553.72-1.091 1.087-1.604.71-1.04 1.416-1.988 2.021-2.8.619-.806 1.151-1.469 1.536-1.928.395-.452.621-.712.621-.712z"/>
          <path d="M59.939 60.623s-.077.336-.213.92c-.146.579-.368 1.4-.657 2.375-.3.968-.65 2.096-1.074 3.281-.202.6-.423 1.21-.661 1.822-.236.617-.462 1.249-.716 1.868-.512 1.232-.99 2.484-1.518 3.616-.523 1.135-1.074 2.16-1.589 3.02-.521.856-.996 1.548-1.358 2.017-.354.475-.596.724-.596.724-.579.604-1.537.625-2.141.046-.379-.36-.527-.882-.443-1.361 0 0 .063-.342.236-.907.165-.57.447-1.36.833-2.285.393-.922.899-1.97 1.51-3.061.605-1.094 1.337-2.215 2.032-3.354.351-.57.731-1.123 1.09-1.677.356-.553.72-1.091 1.087-1.604.71-1.04 1.416-1.988 2.021-2.8.619-.806 1.151-1.469 1.536-1.928.395-.452.621-.712.621-.712z"/>
          <g>
            <path d="M60.184 60.711s.013.343.033.943c.011.597.009 1.447-.019 2.463-.039 1.013-.087 2.193-.189 3.448-.039.631-.096 1.278-.165 1.932-.069.656-.124 1.325-.208 1.989-.178 1.322-.314 2.655-.531 3.886-.213 1.231-.479 2.366-.754 3.329-.282.961-.561 1.752-.789 2.299-.222.549-.389.853-.389.853-.403.733-1.323 1.002-2.058.6-.457-.253-.736-.716-.778-1.2 0 0-.028-.348-.009-.938.014-.593.081-1.43.215-2.424.141-.99.359-2.135.666-3.347.302-1.212.719-2.484 1.095-3.767.193-.639.416-1.272.62-1.898.201-.628.411-1.243.633-1.833.418-1.188.854-2.286 1.23-3.228.388-.938.731-1.717.983-2.259.265-.539.414-.848.414-.848z"/>
            <path d="M60.184 60.711s.013.343.033.943c.011.597.009 1.447-.019 2.463-.039 1.013-.087 2.193-.189 3.448-.039.631-.096 1.278-.165 1.932-.069.656-.124 1.325-.208 1.989-.178 1.322-.314 2.655-.531 3.886-.213 1.231-.479 2.366-.754 3.329-.282.961-.561 1.752-.789 2.299-.222.549-.389.853-.389.853-.403.733-1.323 1.002-2.058.6-.457-.253-.736-.716-.778-1.2 0 0-.028-.348-.009-.938.014-.593.081-1.43.215-2.424.141-.99.359-2.135.666-3.347.302-1.212.719-2.484 1.095-3.767.193-.639.416-1.272.62-1.898.201-.628.411-1.243.633-1.833.418-1.188.854-2.286 1.23-3.228.388-.938.731-1.717.983-2.259.265-.539.414-.848.414-.848z"/>
          </g>
          <g>
            <path d="M60.444 60.73s.101.329.277.902c.164.575.38 1.397.618 2.385.225.989.483 2.143.71 3.381.124.618.237 1.258.339 1.909.104.651.225 1.311.316 1.974.169 1.323.381 2.646.489 3.891.114 1.244.151 2.409.135 3.41-.024 1.002-.087 1.839-.168 2.426-.07.587-.153.926-.153.926-.199.812-1.018 1.31-1.832 1.109-.509-.124-.896-.501-1.064-.958 0 0-.117-.327-.25-.904-.141-.575-.291-1.401-.419-2.395-.122-.993-.206-2.156-.224-3.405-.022-1.249.051-2.588.083-3.921.021-.668.071-1.338.105-1.996.033-.658.077-1.306.139-1.935.096-1.256.232-2.43.354-3.437.132-1.006.262-1.847.365-2.436.115-.588.18-.926.18-.926z"/>
            <path d="M60.444 60.73s.101.329.277.902c.164.575.38 1.397.618 2.385.225.989.483 2.143.71 3.381.124.618.237 1.258.339 1.909.104.651.225 1.311.316 1.974.169 1.323.381 2.646.489 3.891.114 1.244.151 2.409.135 3.41-.024 1.002-.087 1.839-.168 2.426-.07.587-.153.926-.153.926-.199.812-1.018 1.31-1.832 1.109-.509-.124-.896-.501-1.064-.958 0 0-.117-.327-.25-.904-.141-.575-.291-1.401-.419-2.395-.122-.993-.206-2.156-.224-3.405-.022-1.249.051-2.588.083-3.921.021-.668.071-1.338.105-1.996.033-.658.077-1.306.139-1.935.096-1.256.232-2.43.354-3.437.132-1.006.262-1.847.365-2.436.115-.588.18-.926.18-.926z"/>
          </g>
          <g>
            <path d="M61.281 60.188s.333.078.918.213c.578.145 1.397.365 2.369.654.968.298 2.094.649 3.276 1.071.598.202 1.208.422 1.82.659.613.235 1.247.462 1.863.713 1.229.512 2.479.99 3.608 1.516 1.133.523 2.157 1.072 3.015 1.587.855.52 1.546.993 2.014 1.355.471.355.722.595.722.595.604.58.623 1.539.045 2.143-.36.378-.883.525-1.361.442 0 0-.341-.063-.906-.236-.568-.162-1.356-.445-2.279-.831-.92-.391-1.967-.897-3.056-1.506-1.091-.605-2.21-1.335-3.348-2.028-.565-.353-1.12-.73-1.671-1.089-.554-.357-1.091-.72-1.604-1.084-1.036-.711-1.982-1.416-2.793-2.022-.805-.618-1.465-1.149-1.921-1.532-.454-.394-.711-.62-.711-.62z"/>
            <path d="M61.281 60.188s.333.078.918.213c.578.145 1.397.365 2.369.654.968.298 2.094.649 3.276 1.071.598.202 1.208.422 1.82.659.613.235 1.247.462 1.863.713 1.229.512 2.479.99 3.608 1.516 1.133.523 2.157 1.072 3.015 1.587.855.52 1.546.993 2.014 1.355.471.355.722.595.722.595.604.58.623 1.539.045 2.143-.36.378-.883.525-1.361.442 0 0-.341-.063-.906-.236-.568-.162-1.356-.445-2.279-.831-.92-.391-1.967-.897-3.056-1.506-1.091-.605-2.21-1.335-3.348-2.028-.565-.353-1.12-.73-1.671-1.089-.554-.357-1.091-.72-1.604-1.084-1.036-.711-1.982-1.416-2.793-2.022-.805-.618-1.465-1.149-1.921-1.532-.454-.394-.711-.62-.711-.62z"/>
            <path d="M61.134 60.402s.303.16.832.441c.521.291 1.254.717 2.119 1.246.856.538 1.854 1.171 2.888 1.883.523.349 1.057.721 1.588 1.109.531.386 1.083.767 1.615 1.169 1.055.814 2.137 1.598 3.093 2.399.959.798 1.808 1.594 2.502 2.313.69.723 1.235 1.359 1.594 1.829.363.465.544.762.544.762.432.716.203 1.647-.512 2.082-.447.271-.988.279-1.43.073 0 0-.314-.148-.814-.46-.506-.307-1.194-.784-1.986-1.394-.788-.616-1.668-1.377-2.562-2.247-.898-.866-1.789-1.861-2.711-2.825-.454-.487-.891-.995-1.331-1.484-.441-.488-.867-.977-1.269-1.462-.816-.954-1.548-1.881-2.175-2.676-.616-.805-1.117-1.489-1.46-1.979-.336-.493-.525-.779-.525-.779z"/>
            <path d="M61.134 60.402s.303.16.832.441c.521.291 1.254.717 2.119 1.246.856.538 1.854 1.171 2.888 1.883.523.349 1.057.721 1.588 1.109.531.386 1.083.767 1.615 1.169 1.055.814 2.137 1.598 3.093 2.399.959.798 1.808 1.594 2.502 2.313.69.723 1.235 1.359 1.594 1.829.363.465.544.762.544.762.432.716.203 1.647-.512 2.082-.447.271-.988.279-1.43.073 0 0-.314-.148-.814-.46-.506-.307-1.194-.784-1.986-1.394-.788-.616-1.668-1.377-2.562-2.247-.898-.866-1.789-1.861-2.711-2.825-.454-.487-.891-.995-1.331-1.484-.441-.488-.867-.977-1.269-1.462-.816-.954-1.548-1.881-2.175-2.676-.616-.805-1.117-1.489-1.46-1.979-.336-.493-.525-.779-.525-.779z"/>
            <path d="M60.936 60.572s.25.232.688.642c.429.415 1.027 1.016 1.726 1.752.688.742 1.487 1.608 2.302 2.566.416.474.835.969 1.247 1.481.414.51.848 1.021 1.258 1.549.808 1.058 1.651 2.096 2.365 3.117.72 1.02 1.334 2.007 1.818 2.881.479.878.843 1.633 1.067 2.181.229.543.326.876.326.876.234.805-.228 1.645-1.032 1.879-.502.145-1.026.013-1.399-.299 0 0-.265-.225-.667-.657-.41-.427-.952-1.064-1.559-1.859-.602-.799-1.255-1.762-1.894-2.832-.642-1.069-1.246-2.261-1.886-3.431-.313-.589-.604-1.193-.902-1.779-.301-.584-.585-1.167-.847-1.741-.542-1.133-1.01-2.216-1.408-3.146-.388-.938-.694-1.729-.898-2.29-.195-.566-.305-.89-.305-.89z"/>
            <path d="M60.936 60.572s.25.232.688.642c.429.415 1.027 1.016 1.726 1.752.688.742 1.487 1.608 2.302 2.566.416.474.835.969 1.247 1.481.414.51.848 1.021 1.258 1.549.808 1.058 1.651 2.096 2.365 3.117.72 1.02 1.334 2.007 1.818 2.881.479.878.843 1.633 1.067 2.181.229.543.326.876.326.876.234.805-.228 1.645-1.032 1.879-.502.145-1.026.013-1.399-.299 0 0-.265-.225-.667-.657-.41-.427-.952-1.064-1.559-1.859-.602-.799-1.255-1.762-1.894-2.832-.642-1.069-1.246-2.261-1.886-3.431-.313-.589-.604-1.193-.902-1.779-.301-.584-.585-1.167-.847-1.741-.542-1.133-1.01-2.216-1.408-3.146-.388-.938-.694-1.729-.898-2.29-.195-.566-.305-.89-.305-.89z"/>
            <g>
              <path d="M60.7 60.684s.182.291.5.799c.308.512.729 1.248 1.213 2.139.473.896 1.021 1.939 1.559 3.074.28.564.556 1.152.821 1.754.268.6.555 1.206.813 1.82.508 1.233 1.054 2.454 1.479 3.624.432 1.171.77 2.285 1.01 3.254.237.972.392 1.795.466 2.382.083.585.091.933.091.933.017.835-.647 1.528-1.484 1.545-.522.013-.995-.251-1.274-.648 0 0-.198-.286-.475-.808-.285-.519-.645-1.276-1.024-2.2-.375-.927-.756-2.025-1.096-3.226-.343-1.198-.618-2.508-.934-3.803-.15-.648-.275-1.308-.41-1.951-.139-.643-.265-1.279-.368-1.9-.231-1.234-.402-2.403-.547-3.404-.131-1.005-.223-1.85-.274-2.442-.042-.601-.066-.942-.066-.942z"/>
              <path d="M60.7 60.684s.182.291.5.799c.308.512.729 1.248 1.213 2.139.473.896 1.021 1.939 1.559 3.074.28.564.556 1.152.821 1.754.268.6.555 1.206.813 1.82.508 1.233 1.054 2.454 1.479 3.624.432 1.171.77 2.285 1.01 3.254.237.972.392 1.795.466 2.382.083.585.091.933.091.933.017.835-.647 1.528-1.484 1.545-.522.013-.995-.251-1.274-.648 0 0-.198-.286-.475-.808-.285-.519-.645-1.276-1.024-2.2-.375-.927-.756-2.025-1.096-3.226-.343-1.198-.618-2.508-.934-3.803-.15-.648-.275-1.308-.41-1.951-.139-.643-.265-1.279-.368-1.9-.231-1.234-.402-2.403-.547-3.404-.131-1.005-.223-1.85-.274-2.442-.042-.601-.066-.942-.066-.942z"/>
            </g>
            <g>
              <path d="M60.444 60.73s.101.329.277.9c.164.574.38 1.396.617 2.381.225.986.484 2.138.71 3.373.125.617.237 1.257.34 1.906s.224 1.309.314 1.969c.17 1.322.382 2.644.49 3.885.113 1.241.15 2.404.135 3.403-.025 1-.087 1.835-.169 2.422-.07.586-.153.923-.153.923-.2.813-1.02 1.31-1.832 1.109-.508-.125-.896-.502-1.064-.957 0 0-.117-.327-.25-.903-.141-.573-.291-1.398-.419-2.39-.122-.991-.206-2.152-.223-3.398-.022-1.246.051-2.583.082-3.914.021-.666.072-1.335.107-1.992.032-.656.077-1.305.138-1.931.097-1.253.232-2.425.354-3.429.133-1.006.263-1.845.366-2.432.115-.589.18-.925.18-.925z"/>
              <path d="M60.444 60.73s.101.329.277.9c.164.574.38 1.396.617 2.381.225.986.484 2.138.71 3.373.125.617.237 1.257.34 1.906s.224 1.309.314 1.969c.17 1.322.382 2.644.49 3.885.113 1.241.15 2.404.135 3.403-.025 1-.087 1.835-.169 2.422-.07.586-.153.923-.153.923-.2.813-1.02 1.31-1.832 1.109-.508-.125-.896-.502-1.064-.957 0 0-.117-.327-.25-.903-.141-.573-.291-1.398-.419-2.39-.122-.991-.206-2.152-.223-3.398-.022-1.246.051-2.583.082-3.914.021-.666.072-1.335.107-1.992.032-.656.077-1.305.138-1.931.097-1.253.232-2.425.354-3.429.133-1.006.263-1.845.366-2.432.115-.589.18-.925.18-.925z"/>
            </g>
          </g>
          <g>
            <path d="M59.53 60.197s-.259.227-.714.62c-.457.384-1.12.917-1.927 1.535-.811.607-1.758 1.313-2.797 2.023-.516.365-1.055.729-1.606 1.084-.553.362-1.108.74-1.677 1.094-1.139.692-2.261 1.425-3.354 2.031-1.092.609-2.14 1.116-3.062 1.51-.924.386-1.714.667-2.284.833-.564.173-.905.234-.905.234-.825.148-1.611-.396-1.761-1.221-.094-.515.092-1.024.442-1.362 0 0 .251-.239.724-.595.47-.364 1.163-.838 2.019-1.359.858-.516 1.886-1.064 3.021-1.59 1.13-.526 2.383-1.006 3.614-1.519.62-.252 1.252-.478 1.868-.715.613-.238 1.223-.46 1.82-.66 1.188-.424 2.315-.774 3.282-1.075.976-.287 1.795-.512 2.376-.657.586-.133.921-.211.921-.211z"/>
            <path d="M59.53 60.197s-.259.227-.714.62c-.457.384-1.12.917-1.927 1.535-.811.607-1.758 1.313-2.797 2.023-.516.365-1.055.729-1.606 1.084-.553.362-1.108.74-1.677 1.094-1.139.692-2.261 1.425-3.354 2.031-1.092.609-2.14 1.116-3.062 1.51-.924.386-1.714.667-2.284.833-.564.173-.905.234-.905.234-.825.148-1.611-.396-1.761-1.221-.094-.515.092-1.024.442-1.362 0 0 .251-.239.724-.595.47-.364 1.163-.838 2.019-1.359.858-.516 1.886-1.064 3.021-1.59 1.13-.526 2.383-1.006 3.614-1.519.62-.252 1.252-.478 1.868-.715.613-.238 1.223-.46 1.82-.66 1.188-.424 2.315-.774 3.282-1.075.976-.287 1.795-.512 2.376-.657.586-.133.921-.211.921-.211z"/>
            <path d="M59.678 60.413s-.192.285-.528.783c-.343.488-.846 1.175-1.464 1.98-.626.797-1.358 1.723-2.179 2.679-.404.486-.829.978-1.271 1.465-.44.491-.878 1-1.338 1.487-.919.966-1.815 1.964-2.713 2.832-.896.87-1.78 1.631-2.565 2.251-.792.611-1.483 1.086-1.99 1.395-.503.313-.816.463-.816.463-.757.354-1.658.032-2.016-.725-.224-.475-.176-1.013.076-1.432 0 0 .179-.295.545-.761.358-.474.904-1.111 1.597-1.837.696-.719 1.546-1.517 2.507-2.314.955-.803 2.041-1.588 3.097-2.404.533-.403 1.086-.785 1.619-1.172.531-.391 1.064-.763 1.59-1.11 1.036-.718 2.035-1.348 2.893-1.888.865-.531 1.6-.96 2.122-1.25.53-.281.834-.442.834-.442z"/>
            <path d="M59.678 60.413s-.192.285-.528.783c-.343.488-.846 1.175-1.464 1.98-.626.797-1.358 1.723-2.179 2.679-.404.486-.829.978-1.271 1.465-.44.491-.878 1-1.338 1.487-.919.966-1.815 1.964-2.713 2.832-.896.87-1.78 1.631-2.565 2.251-.792.611-1.483 1.086-1.99 1.395-.503.313-.816.463-.816.463-.757.354-1.658.032-2.016-.725-.224-.475-.176-1.013.076-1.432 0 0 .179-.295.545-.761.358-.474.904-1.111 1.597-1.837.696-.719 1.546-1.517 2.507-2.314.955-.803 2.041-1.588 3.097-2.404.533-.403 1.086-.785 1.619-1.172.531-.391 1.064-.763 1.59-1.11 1.036-.718 2.035-1.348 2.893-1.888.865-.531 1.6-.96 2.122-1.25.53-.281.834-.442.834-.442z"/>
            <path d="M59.876 60.582s-.112.326-.308.894c-.205.56-.513 1.354-.9 2.291-.399.933-.867 2.018-1.412 3.152-.263.574-.548 1.158-.848 1.743-.3.589-.59 1.193-.907 1.784-.64 1.171-1.244 2.366-1.888 3.436-.64 1.073-1.295 2.038-1.896 2.838-.608.796-1.152 1.436-1.563 1.864-.402.433-.668.658-.668.658-.638.539-1.594.459-2.134-.181-.338-.397-.432-.931-.298-1.399 0 0 .098-.334.328-.878.226-.55.588-1.307 1.068-2.185.487-.876 1.101-1.865 1.821-2.888.717-1.021 1.561-2.063 2.371-3.122.409-.529.845-1.04 1.26-1.553.413-.514.831-1.011 1.248-1.482.815-.961 1.617-1.83 2.306-2.571.699-.738 1.297-1.343 1.728-1.758.44-.409.692-.643.692-.643z"/>
            <path d="M59.876 60.582s-.112.326-.308.894c-.205.56-.513 1.354-.9 2.291-.399.933-.867 2.018-1.412 3.152-.263.574-.548 1.158-.848 1.743-.3.589-.59 1.193-.907 1.784-.64 1.171-1.244 2.366-1.888 3.436-.64 1.073-1.295 2.038-1.896 2.838-.608.796-1.152 1.436-1.563 1.864-.402.433-.668.658-.668.658-.638.539-1.594.459-2.134-.181-.338-.397-.432-.931-.298-1.399 0 0 .098-.334.328-.878.226-.55.588-1.307 1.068-2.185.487-.876 1.101-1.865 1.821-2.888.717-1.021 1.561-2.063 2.371-3.122.409-.529.845-1.04 1.26-1.553.413-.514.831-1.011 1.248-1.482.815-.961 1.617-1.83 2.306-2.571.699-.738 1.297-1.343 1.728-1.758.44-.409.692-.643.692-.643z"/>
            <g>
              <path d="M60.111 60.695s-.023.341-.065.941c-.054.595-.145 1.439-.278 2.447-.144 1.003-.315 2.173-.548 3.409-.104.621-.228 1.262-.366 1.903-.14.646-.261 1.305-.414 1.958-.316 1.295-.591 2.607-.936 3.808-.341 1.201-.723 2.304-1.097 3.232-.382.926-.741 1.684-1.025 2.204-.278.522-.475.808-.475.808-.479.688-1.422.857-2.109.381-.43-.3-.656-.789-.649-1.275 0 0 .008-.349.09-.935.074-.589.23-1.414.467-2.387.243-.971.58-2.086 1.013-3.259.426-1.174.973-2.396 1.481-3.631.258-.617.547-1.224.815-1.825.265-.603.539-1.191.821-1.756.54-1.139 1.088-2.185 1.561-3.081.485-.893.907-1.632 1.215-2.144.318-.508.499-.798.499-.798z"/>
              <path d="M60.111 60.695s-.023.341-.065.941c-.054.595-.145 1.439-.278 2.447-.144 1.003-.315 2.173-.548 3.409-.104.621-.228 1.262-.366 1.903-.14.646-.261 1.305-.414 1.958-.316 1.295-.591 2.607-.936 3.808-.341 1.201-.723 2.304-1.097 3.232-.382.926-.741 1.684-1.025 2.204-.278.522-.475.808-.475.808-.479.688-1.422.857-2.109.381-.43-.3-.656-.789-.649-1.275 0 0 .008-.349.09-.935.074-.589.23-1.414.467-2.387.243-.971.58-2.086 1.013-3.259.426-1.174.973-2.396 1.481-3.631.258-.617.547-1.224.815-1.825.265-.603.539-1.191.821-1.756.54-1.139 1.088-2.185 1.561-3.081.485-.893.907-1.632 1.215-2.144.318-.508.499-.798.499-.798z"/>
            </g>
            <g>
              <path d="M60.367 60.742s.065.338.181.926c.104.589.234 1.431.366 2.437.119 1.007.257 2.18.352 3.437.061.629.105 1.276.139 1.933.034.659.086 1.329.108 1.996.03 1.336.103 2.674.081 3.922-.017 1.249-.102 2.411-.223 3.405-.13.993-.279 1.82-.422 2.396-.131.575-.249.903-.249.903-.282.787-1.149 1.197-1.938.914-.493-.178-.841-.594-.957-1.065 0 0-.083-.338-.154-.925-.081-.588-.144-1.425-.168-2.427-.018-1 .02-2.165.134-3.41.108-1.243.322-2.565.492-3.891.09-.662.211-1.321.314-1.974.102-.65.213-1.29.34-1.91.227-1.238.485-2.392.711-3.379.236-.987.453-1.811.618-2.385.176-.575.275-.903.275-.903z"/>
              <path d="M60.367 60.742s.065.338.181.926c.104.589.234 1.431.366 2.437.119 1.007.257 2.18.352 3.437.061.629.105 1.276.139 1.933.034.659.086 1.329.108 1.996.03 1.336.103 2.674.081 3.922-.017 1.249-.102 2.411-.223 3.405-.13.993-.279 1.82-.422 2.396-.131.575-.249.903-.249.903-.282.787-1.149 1.197-1.938.914-.493-.178-.841-.594-.957-1.065 0 0-.083-.338-.154-.925-.081-.588-.144-1.425-.168-2.427-.018-1 .02-2.165.134-3.41.108-1.243.322-2.565.492-3.891.09-.662.211-1.321.314-1.974.102-.65.213-1.29.34-1.91.227-1.238.485-2.392.711-3.379.236-.987.453-1.811.618-2.385.176-.575.275-.903.275-.903z"/>
            </g>
            <g>
              <path d="M61.258 60.29s.321.11.889.306c.561.205 1.352.511 2.287.899.933.396 2.017.865 3.148 1.407.571.262 1.154.546 1.741.847.585.297 1.191.59 1.778.903 1.17.638 2.363 1.244 3.43 1.885 1.072.638 2.034 1.292 2.833 1.893.796.606 1.432 1.148 1.861 1.558.431.404.656.669.656.669.539.64.458 1.595-.182 2.135-.397.338-.932.431-1.398.299 0 0-.333-.099-.877-.331-.549-.222-1.303-.585-2.181-1.063-.873-.484-1.862-1.1-2.881-1.819-1.021-.715-2.059-1.558-3.117-2.365-.526-.411-1.038-.844-1.549-1.258-.513-.413-1.01-.829-1.481-1.246-.958-.815-1.823-1.616-2.567-2.303-.733-.699-1.337-1.298-1.75-1.724-.411-.441-.64-.692-.64-.692z"/>
              <path d="M61.258 60.29s.321.11.889.306c.561.205 1.352.511 2.287.899.933.396 2.017.865 3.148 1.407.571.262 1.154.546 1.741.847.585.297 1.191.59 1.778.903 1.17.638 2.363 1.244 3.43 1.885 1.072.638 2.034 1.292 2.833 1.893.796.606 1.432 1.148 1.861 1.558.431.404.656.669.656.669.539.64.458 1.595-.182 2.135-.397.338-.932.431-1.398.299 0 0-.333-.099-.877-.331-.549-.222-1.303-.585-2.181-1.063-.873-.484-1.862-1.1-2.881-1.819-1.021-.715-2.059-1.558-3.117-2.365-.526-.411-1.038-.844-1.549-1.258-.513-.413-1.01-.829-1.481-1.246-.958-.815-1.823-1.616-2.567-2.303-.733-.699-1.337-1.298-1.75-1.724-.411-.441-.64-.692-.64-.692z"/>
              <path d="M61.088 60.488s.284.19.78.525c.488.344 1.173.843 1.977 1.462.796.624 1.723 1.356 2.677 2.173.485.402.976.827 1.463 1.269.488.44.997.878 1.484 1.331.965.92 1.959 1.814 2.826 2.71.866.895 1.629 1.775 2.246 2.563.609.789 1.085 1.479 1.394 1.985.311.5.459.813.459.813.357.758.032 1.66-.725 2.018-.473.223-1.013.174-1.431-.075 0 0-.296-.182-.761-.544-.471-.359-1.106-.904-1.831-1.594-.719-.695-1.514-1.545-2.313-2.502-.8-.955-1.583-2.039-2.398-3.094-.402-.532-.782-1.082-1.17-1.614-.387-.531-.761-1.062-1.107-1.587-.713-1.035-1.345-2.033-1.883-2.889-.529-.864-.956-1.599-1.245-2.12-.283-.528-.442-.83-.442-.83z"/>
              <path d="M61.088 60.488s.284.19.78.525c.488.344 1.173.843 1.977 1.462.796.624 1.723 1.356 2.677 2.173.485.402.976.827 1.463 1.269.488.44.997.878 1.484 1.331.965.92 1.959 1.814 2.826 2.71.866.895 1.629 1.775 2.246 2.563.609.789 1.085 1.479 1.394 1.985.311.5.459.813.459.813.357.758.032 1.66-.725 2.018-.473.223-1.013.174-1.431-.075 0 0-.296-.182-.761-.544-.471-.359-1.106-.904-1.831-1.594-.719-.695-1.514-1.545-2.313-2.502-.8-.955-1.583-2.039-2.398-3.094-.402-.532-.782-1.082-1.17-1.614-.387-.531-.761-1.062-1.107-1.587-.713-1.035-1.345-2.033-1.883-2.889-.529-.864-.956-1.599-1.245-2.12-.283-.528-.442-.83-.442-.83z"/>
              <path d="M60.872 60.635s.225.258.618.711c.384.457.916 1.117 1.532 1.923.607.81 1.313 1.756 2.021 2.792.365.514.729 1.052 1.086 1.604.358.551.737 1.104 1.088 1.671.694 1.137 1.423 2.257 2.028 3.348.608 1.088 1.116 2.138 1.506 3.055.386.925.667 1.713.832 2.281.174.563.235.906.235.906.147.822-.399 1.61-1.224 1.76-.514.091-1.022-.095-1.361-.444 0 0-.239-.251-.594-.723-.363-.467-.837-1.157-1.356-2.013-.515-.857-1.063-1.883-1.585-3.014-.528-1.131-1.005-2.379-1.52-3.609-.249-.617-.475-1.248-.711-1.863-.235-.613-.458-1.222-.658-1.819-.422-1.185-.773-2.311-1.072-3.278-.286-.972-.51-1.79-.655-2.369-.133-.585-.21-.919-.21-.919z"/>
              <path d="M60.872 60.635s.225.258.618.711c.384.457.916 1.117 1.532 1.923.607.81 1.313 1.756 2.021 2.792.365.514.729 1.052 1.086 1.604.358.551.737 1.104 1.088 1.671.694 1.137 1.423 2.257 2.028 3.348.608 1.088 1.116 2.138 1.506 3.055.386.925.667 1.713.832 2.281.174.563.235.906.235.906.147.822-.399 1.61-1.224 1.76-.514.091-1.022-.095-1.361-.444 0 0-.239-.251-.594-.723-.363-.467-.837-1.157-1.356-2.013-.515-.857-1.063-1.883-1.585-3.014-.528-1.131-1.005-2.379-1.52-3.609-.249-.617-.475-1.248-.711-1.863-.235-.613-.458-1.222-.658-1.819-.422-1.185-.773-2.311-1.072-3.278-.286-.972-.51-1.79-.655-2.369-.133-.585-.21-.919-.21-.919z"/>
              <g>
                <path d="M60.627 60.722s.15.308.413.846c.252.542.597 1.317.983 2.254.377.939.813 2.036 1.229 3.221.219.591.431 1.205.634 1.832.202.625.424 1.256.617 1.895.376 1.278.792 2.55 1.094 3.758.306 1.21.523 2.353.664 3.344.133.989.201 1.824.212 2.417.022.589-.006.937-.006.937-.071.831-.804 1.451-1.638 1.381-.521-.044-.963-.356-1.2-.779 0 0-.166-.306-.387-.854-.229-.543-.508-1.334-.79-2.294-.274-.961-.539-2.094-.752-3.322-.215-1.229-.353-2.559-.529-3.88-.083-.661-.138-1.329-.205-1.982-.072-.654-.13-1.299-.168-1.929-.1-1.253-.148-2.431-.188-3.442-.025-1.015-.028-1.863-.018-2.459.022-.602.035-.944.035-.944z"/>
                <path d="M60.627 60.722s.15.308.413.846c.252.542.597 1.317.983 2.254.377.939.813 2.036 1.229 3.221.219.591.431 1.205.634 1.832.202.625.424 1.256.617 1.895.376 1.278.792 2.55 1.094 3.758.306 1.21.523 2.353.664 3.344.133.989.201 1.824.212 2.417.022.589-.006.937-.006.937-.071.831-.804 1.451-1.638 1.381-.521-.044-.963-.356-1.2-.779 0 0-.166-.306-.387-.854-.229-.543-.508-1.334-.79-2.294-.274-.961-.539-2.094-.752-3.322-.215-1.229-.353-2.559-.529-3.88-.083-.661-.138-1.329-.205-1.982-.072-.654-.13-1.299-.168-1.929-.1-1.253-.148-2.431-.188-3.442-.025-1.015-.028-1.863-.018-2.459.022-.602.035-.944.035-.944z"/>
              </g>
              <g>
                <path d="M60.367 60.742s.065.336.181.924c.104.588.234 1.427.367 2.433.119 1.004.257 2.175.353 3.429.059.627.104 1.274.137 1.93.035.657.087 1.326.108 1.992.03 1.333.104 2.668.083 3.915-.019 1.247-.103 2.407-.223 3.398-.129.991-.279 1.816-.421 2.391-.131.576-.251.902-.251.902-.281.786-1.148 1.195-1.937.911-.492-.177-.84-.592-.958-1.063 0 0-.081-.337-.153-.923-.081-.586-.144-1.423-.169-2.422-.017-.998.021-2.161.133-3.402.109-1.243.322-2.563.493-3.885.09-.661.211-1.319.315-1.969.1-.65.211-1.29.338-1.905.227-1.237.485-2.389.71-3.375.237-.984.455-1.807.618-2.38.177-.574.276-.901.276-.901z"/>
                <path d="M60.367 60.742s.065.336.181.924c.104.588.234 1.427.367 2.433.119 1.004.257 2.175.353 3.429.059.627.104 1.274.137 1.93.035.657.087 1.326.108 1.992.03 1.333.104 2.668.083 3.915-.019 1.247-.103 2.407-.223 3.398-.129.991-.279 1.816-.421 2.391-.131.576-.251.902-.251.902-.281.786-1.148 1.195-1.937.911-.492-.177-.84-.592-.958-1.063 0 0-.081-.337-.153-.923-.081-.586-.144-1.423-.169-2.422-.017-.998.021-2.161.133-3.402.109-1.243.322-2.563.493-3.885.09-.661.211-1.319.315-1.969.1-.65.211-1.29.338-1.905.227-1.237.485-2.389.71-3.375.237-.984.455-1.807.618-2.38.177-.574.276-.901.276-.901z"/>
              </g>
            </g>
          </g>
        </g>
        <g>
          <path d="M65.222 83.511c-.963 0-1.745-.781-1.745-1.745v-6.803c0-.963.782-1.745 1.745-1.745.964 0 1.744.782 1.744 1.745v6.803c0 .963-.78 1.745-1.744 1.745z"/>
          <g stroke-linejoin="round">
            <path d="M68.596 69.82l-3.374-2.664-3.372 2.664v9.968l3.372-4.825 3.374-4.839z"/>
            <path d="M68.591 64.504v15.278l-6.886-9.857z"/>
            <path d="M68.596 76.998l-5.63-8.061"/>
            <path d="M68.596 72.647l-3.665-5.257"/>
          </g>
          <g strokeLinecap="round" stroke-linejoin="round">
            <path d="M76.948 86.311c.031-.093.059-.188.059-.293 0-.101-.027-.194-.058-.286h3.828l1.806-1.715h-5.06c-.344.41-.721.784-1.113 1.138-.104-.04-.215-.066-.334-.066H42.841l.702-1.653-6.126 2.583 6.126 2.584-.702-1.654h33.235c.089 0 .168-.026.25-.05l1.094 1.086.091.103h5.072l-1.806-1.775h-3.829z"/>
            <path d="M75.57 92.703c.063-.073.119-.156.158-.251.038-.095.049-.19.056-.286l3.537 1.465 2.324-.894-4.674-1.937c-.475.248-.966.449-1.466.626-.08-.077-.172-.146-.281-.19L44.519 78.518l1.282-1.259-6.649.042 4.671 4.732-.016-1.796 30.705 12.718c.08.033.166.04.25.051l.597 1.418.042.131 4.688 1.941-.988-2.33-3.531-1.463z"/>
            <path d="M79.324 78.411l-3.539 1.466c-.006-.098-.018-.197-.057-.293-.038-.092-.091-.173-.152-.246l3.526-1.461 1.012-2.275-4.675 1.937c-.16.511-.365 1-.593 1.477-.114.002-.229.021-.335.065L43.805 91.798l.016-1.795-4.67 4.731 6.648.043-1.281-1.259L75.225 80.8c.082-.034.145-.09.212-.142l1.425.582.122.063 4.688-1.942-2.348-.95z"/>
          </g>
          <path d="M65.77 82.423l.303 1.366c.049.222-.091.439-.312.489-.188.041-.373-.053-.456-.217l-.63-1.248c-.146-.289-.029-.642.26-.787.288-.146.642-.031.787.259.022.044.039.093.048.138z"/>
          <path d="M67.087 81.237s.135-.026.338-.015c.104.013.211.019.366.058.146.036.303.061.454.115.312.128.523.27.724.37.185.122.297.229.297.229l.138.133c.155.146.16.389.015.543-.101.106-.247.143-.379.107 0 0-.126-.034-.314-.085-.181-.041-.469-.127-.676-.162-.111-.023-.222-.047-.325-.068-.094-.031-.225-.031-.323-.039-.203-.014-.339-.022-.339-.022-.317-.021-.56-.297-.538-.615.018-.268.216-.48.467-.53l.095-.019z"/>
          <path d="M64.165 83.504s-.08.071-.201.176c-.141.106-.234.236-.354.364-.112.113-.26.302-.354.41-.098.117-.16.196-.16.196-.145.177-.404.203-.581.059-.123-.1-.174-.255-.145-.4l.04-.198s.024-.12.083-.285c.081-.159.149-.346.289-.576.063-.115.158-.199.233-.293.082-.098.146-.151.203-.209.121-.105.224-.147.222-.151l.109-.051c.289-.131.63-.004.763.286.109.236.042.51-.147.672z"/>
          <path d="M54.78 83.511c.964 0 1.745-.781 1.745-1.745v-6.803c0-.963-.781-1.745-1.745-1.745-.963 0-1.744.782-1.744 1.745v6.803c0 .963.781 1.745 1.744 1.745z"/>
          <g stroke-linejoin="round">
            <path d="M51.407 70.124l3.373 4.839 3.373 4.825V69.82l-3.373-2.664-3.373 2.664z"/>
            <path d="M51.411 64.504v15.278l6.886-9.857z"/>
            <path d="M57.037 68.937l-5.63 8.061"/>
            <path d="M55.071 67.39l-3.664 5.257"/>
          </g>
          <g>
            <path d="M54.232 82.423l-.303 1.366c-.049.222.091.439.313.489.188.041.373-.053.455-.217l.63-1.248c.146-.289.029-.642-.259-.787-.289-.146-.642-.031-.787.259-.022.044-.039.093-.049.138z"/>
            <path d="M52.916 81.237s-.136-.026-.339-.015c-.104.013-.211.019-.365.058-.146.036-.304.061-.455.115-.311.128-.522.27-.723.37-.185.122-.297.229-.297.229l-.139.133c-.155.146-.16.389-.015.543.101.106.248.143.379.107 0 0 .127-.034.314-.085.182-.041.469-.127.676-.162.111-.023.222-.047.326-.068.093-.031.225-.031.322-.039.204-.014.339-.022.339-.022.318-.021.56-.297.538-.615-.018-.268-.215-.48-.466-.53l-.095-.019z"/>
            <path d="M55.837 83.504s.081.071.201.176c.141.106.234.236.354.364.11.113.259.302.354.41.097.117.159.196.159.196.145.177.405.203.581.059.122-.1.174-.255.145-.4l-.04-.198s-.023-.12-.083-.285c-.08-.159-.148-.346-.288-.576-.064-.115-.159-.199-.234-.293-.082-.098-.145-.151-.203-.209-.12-.105-.224-.147-.221-.151l-.11-.051c-.289-.131-.63-.004-.762.286-.109.236-.042.51.147.672z"/>
          </g>
        </g>
        <g>
          <path d="M60.903 72.215c-.49.416-1.285.416-1.775.002l-7.752-6.554c-1.962-1.657-3.554-5.087-3.554-7.655V46.604c0-2.569 2.083-4.652 4.653-4.652h15.049c2.57 0 4.653 2.083 4.653 4.652v11.404c0 2.568-1.59 6-3.55 7.66l-7.724 6.547z"/>
          <g stroke-linejoin="round">
            <path d="M48.985 51.879V46.6c0-1.925 1.565-3.49 3.49-3.49h15.049c1.925 0 3.49 1.565 3.49 3.49v5.279H48.985z"/>
            <path d="M68.468 53.093h2.547v4.917c0 1.966-1.116 4.608-2.547 6.191V53.093z"/>
            <path d="M63.594 53.093h2.548v13.159l-2.548 2.159z"/>
            <path d="M60.018 71.362c-.067 0-.117-.021-.133-.034l-1.152-.973V53.093h2.535V70.38l-1.111.943c-.022.018-.072.039-.139.039z"/>
            <path d="M53.858 66.239V53.093h2.548v15.298z"/>
            <path d="M51.532 64.197c-1.428-1.587-2.547-4.229-2.547-6.188v-4.917h2.547v11.105z"/>
          </g>
        </g>
      </g>
      <path fill="#8133FF" stroke-width="2" stroke-linejoin="round" d="M59.607 9.874l1.952 6.005h6.313l-5.108 3.711 1.951 6.006-5.108-3.711-5.107 3.711 1.95-6.006-5.108-3.711h6.315z"/>
      <path fill="#8133FF" stroke-width="2" stroke-linejoin="round" d="M59.607 91.987l1.952 6.005h6.313l-5.108 3.71 1.951 6.006-5.108-3.712-5.107 3.712 1.95-6.006-5.108-3.71h6.315z"/>
    </g>
    <g id="active_3_">
      <path fill="#D3D3D3" stroke="#A9A9A9" stroke-width="2" d="M31 110.229L9.77 89 2 60l7.771-29L31 9.771 60 2l29 7.77 21.23 21.231L118 60l-7.771 28.998L89 110.229 60 118z"/>
      <path fill="#C0C0C0" stroke="#A9A9A9" stroke-width="2" d="M60.001 118L9.771 89.001V31L60 2l50.229 29v58.001z"/>
      <path fill="#D3D3D3" stroke="#A9A9A9" stroke-width="2" d="M13.26 86.985l.001-53.97L60 6.029l46.74 26.986-.001 53.97-46.738 26.986z"/>
      <g fill="#D3D3D3" stroke="#A9A9A9">
        <g strokeLinecap="round">
          <path d="M48.16 48.471c1.721-1.164 3.256-2.664 4.523-4.466 2.233-3.199 3.281-6.862 3.198-10.491-.419-.303-2.081-.291-2.768-.186l-1.256.173s.15-.639.326-1.418c.186-.791.836-1.931 1.64-2.151.372-.093 1.465-.058 1.616-.046h.012s2.943-.011 3.245-.011c.943 0 2.942-.455 4.002 3.268l1.534 3.931c.187.442.361.896.501 1.361.011.011.011.023.011.036.094.244.233.79.245.814.522 1.64 1.313 3.233 2.349 4.722 1.269 1.814 2.815 3.315 4.548 4.466"/>
          <path d="M55.674 29.885s.196.337.436.75c.24.414.195 1.195-.099 1.739-.294.544-.534.989-.534.989"/>
          <path d="M56.546 31.386s.441-.016.982-.036c.541-.019 1.074-.358 1.186-.755.112-.397.205-.721.205-.721"/>
        </g>
        <path d="M72.178 58.544h8.432c4.163 0 7.55-3.418 7.55-7.619V44.423l.979.122c.645.081 1.277.122 1.882.122 6.517 0 12.174-4.18 14.123-10.294H76.016c-1.636 0-2.966 1.332-2.966 2.967 0 .897.407 1.737 1.098 2.291l.593.367.131.088c.717.493 1.284 1.184 1.641 1.997.251.59.376 1.213.376 1.863 0 2.597-2.113 4.71-4.71 4.71"/>
        <path d="M74.761 38.178l1.441 1.105c.698.593 1.268 1.361 1.651 2.245.326.756.488 1.57.488 2.419 0 3.396-2.769 6.164-6.164 6.164v-1.163c0-.642 1.535-1.111 2.713-2.288.694-.695 1.125-1.655 1.125-2.713 0-.536-.104-1.047-.303-1.512-.291-.664-.744-1.221-1.337-1.629-.012 0-.349-.186-.5-.291-1.035-.698-1.698-1.861-1.698-3.175 0-2.117 1.722-3.839 3.838-3.839h26.787c1.928 0 3.37.536 3.16 1.179-.209.643-1.988 1.147-3.916 1.147h-26.03c-.837 0-1.512.674-1.512 1.513 0 .303.094.594.257.838z"/>
        <path d="M76.794 57.159c.308 1.242-.028 2.258-.749 2.258-.72 0-1.455-.968-1.634-2.152-.18-1.183-.032-2.267.326-2.407.358-.142 1.589.423 1.897 1.666l.16.635z"/>
        <path d="M74.411 57.264c.179 1.184-.35 2.152-1.175 2.152-.826 0-1.4-.561-1.28-1.245.122-.685.222-2.347.222-2.372 0-.026.271-.13.605-.232.331-.102 1.448.515 1.628 1.697z"/>
        <path d="M81.588 57.083c.575 1.142.747 2.135.384 2.206-.364.069-1.481.127-1.628.127-.148 0-.654-.974-1.127-2.164l-.668-1.688c-.472-1.188-.628-2.306-.346-2.481.28-.176 1.494.242 2.069 1.386l1.316 2.614z"/>
        <path d="M79.217 57.253c.473 1.189.246 2.164-.503 2.164-.748 0-1.612-1.016-1.92-2.258l-.159-.636c-.309-1.243-.319-2.381-.025-2.532.294-.15 1.468.386 1.939 1.575l.668 1.687z"/>
        <path d="M84.999 55.223c.772 1.021 1.145 2.072.828 2.337-.317.266-1.778-.051-2.44-1.148l-1.773-2.947c-.661-1.096-1.044-2.132-.853-2.301.193-.169 1.318.201 2.092 1.222l2.146 2.837z"/>
        <path d="M83.387 56.413c.662 1.097.916 2.126.567 2.289-.349.164-1.791-.476-2.366-1.618l-1.315-2.613c-.575-1.145-.867-2.212-.65-2.376.216-.163 1.33.275 1.991 1.371l1.773 2.947z"/>
        <path d="M87.182 51.496c.832.973 1.379 2.137 1.216 2.587-.164.451-1.4.695-2.151-.34l-2.048-2.82c-.751-1.035-1.204-2.086-1.007-2.335.199-.25 1.379-.147 2.211.826l1.779 2.082z"/>
        <path d="M86.246 53.743c.751 1.035 1.198 2.111.994 2.392-.205.282-1.469.108-2.241-.912l-2.146-2.837c-.773-1.021-1.192-2.07-.933-2.333.258-.262 1.527-.165 2.278.87l2.048 2.82z"/>
        <path d="M87.134 46.686c1.043.739 1.897 1.797 1.897 2.35s-.835.375-1.856-.396l-.8-.603c-1.021-.771-1.752-1.596-1.624-1.833.128-.237 1.308-.279 2.352.46l.031.022z"/>
        <path d="M87.175 48.639c1.021.771 1.856 1.602 1.856 1.845s-.026.8-.058 1.238c-.032.438-.96.747-1.792-.226l-1.779-2.082c-.832-.973-1.415-1.917-1.297-2.099.119-.183 1.248-.05 2.27.721l.8.603z"/>
        <path d="M87.352 44.912c.924.353 1.68 1.198 1.68 1.879s-.854.633-1.897-.106l-.031-.021c-1.044-.74-1.827-1.499-1.741-1.688.085-.188 1.064-.416 1.989-.064z"/>
        <path d="M92.551 44.571c1.25.271 1.246.689-.011.93 0 0-.206.04-1.52.04h-.675c-.723-.07-1.314-.097-1.314-.058s-.756-.218-1.68-.57c-.925-.352-1.619-.804-1.542-1.006.076-.201 1.291-.517 2.541-.246l4.201.91z"/>
        <path d="M98.817 41.696c1.276.081 1.894.468 1.369.862-.524.393-2.027 1.261-2.03 1.261-.004 0-1.042-.154-2.307-.344l-7.146-1.068c-1.266-.188-2.3-.346-2.3-.35 0-.003.044-.17.099-.373.054-.201 1.226-.685 2.502-.604l9.813.616z"/>
        <path d="M95.85 43.475c1.265.19 1.816.559 1.225.821s-2.241.768-2.244.768c-.004 0-1.029-.222-2.279-.493l-4.2-.91c-1.25-.271-2.222-.655-2.158-.854.065-.198 1.245-.588 2.511-.4l7.145 1.068z"/>
        <path d="M101.733 38.523c1.279.034 1.92.583 1.425 1.219-.496.637-3.064 2.034-4.341 1.954l-9.813-.616c-1.276-.081-2.249-.554-2.159-1.053s1.291-1.869 2.569-1.834l12.319.33z"/>
        <path d="M103.21 35.828c1.279 0 2.124.427 1.879.948-.246.521-2.076 1.781-3.355 1.747l-12.319-.331c-1.278-.034-2.325-.063-2.325-.067s.024-.341.053-.751c.028-.409 1.1-1.547 2.378-1.547h13.689z"/>
        <path d="M73.499 52.886c.272 1.251.208 2.372-.141 2.489-.348.119-1.181-.668-1.181-1.948v-.989c0-1.279.107-2.328.238-2.332.131-.004.692.982.965 2.232l.119.548z"/>
        <path d="M75.704 51.891c.823.979 1.158 1.969.741 2.197l-.371.176-.721.348c-.749.301-1.582-.476-1.854-1.727l-.118-.547c-.272-1.25-.326-2.3-.121-2.332s1.396.639 2.218 1.617l.226.268z"/>
        <path d="M78.24 50.436c1.111.634 1.712 1.398 1.335 1.699l-.349.256-.675.488c-.742.435-2.024-.009-2.848-.988l-.227-.268c-.822-.978-1.225-1.887-.894-2.018.333-.132 2.039-.092 3.15.542l.508.289z"/>
        <path d="M80.344 48.739c1.24.313 1.915.946 1.5 1.407l-.396.384-.384.384c-.441.37-1.713.156-2.824-.479l-.506-.288c-1.111-.634-1.827-1.31-1.591-1.502.237-.192.781-.768.785-.768.003 0 1.021.257 2.261.571l1.155.291z"/>
        <path d="M81.469 46.828c1.274.111 2.314.319 2.312.463-.004.144-.188.759-.396 1.041-.207.281-.775.978-.779.978s-1.021-.257-2.262-.57l-1.154-.291c-1.24-.314-2.114-.767-1.94-1.007.173-.239 1.577-.845 2.852-.733l1.367.119z"/>
        <path d="M83.773 46.133c.007.493-1.03.805-2.305.694l-1.368-.119c-1.274-.111-2.23-.427-2.125-.702.106-.276 1.315-1.14 2.589-1.268l.825-.083c1.274-.126 2.379.987 2.384 1.478z"/>
        <path d="M80.564 44.739c-1.273.127-2.274-.072-2.223-.443v-.349-.384c-.059-.403.932-.879 2.199-1.058l.593-.084c1.267-.178 2.351.012 2.408.42.058.41-.879 1.687-2.152 1.814l-.825.084z"/>
        <path d="M83.273 41.202c.09.493-.873 1.042-2.14 1.22l-.593.084c-1.268.179-2.398-.072-2.513-.559l-.175-.419-.186-.431c-.269-.416.548-.9 1.815-1.074l1.102-.153c1.27-.176 2.602.839 2.69 1.332z"/>
        <path d="M82.663 38.829c.124.398-.811.866-2.078 1.041l-1.102.153c-1.268.174-2.308.319-2.311.319s-.142-.17-.308-.378-.912-.871-1.216-1.105c-.303-.234.486-.559 1.755-.724l2.481-.321c1.27-.164 2.654.619 2.779 1.015z"/>
        <path d="M81.906 36.899c.158.338-.752.751-2.021.915l-2.481.321c-1.269.165-2.309.299-2.313.299-.004 0-.078-.057-.168-.127-.09-.071-.278-.369-.419-.663v-.302-.838c.832-.37 2.559-.674 3.838-.674h.688c1.278-.002 2.72.729 2.876 1.069z"/>
        <path d="M84.867 35.828c1.279 0 2.324.238 2.32.529-.003.292-1.087.998-2.365.961l-.421-.014c-1.278-.038-2.436-.299-2.57-.581-.134-.282.571-.896 1.851-.896h1.185z"/>
        <path d="M84.822 37.318c1.278.037 2.317.179 2.307.313-.01.134-.04.491-.04.494s-.019.202-.041.442-1.056.763-2.209.652c-1.155-.113-2.263-.675-2.46-1.25l-.188-.455-.034-.093c-.045-.103.966-.155 2.244-.117l.421.014z"/>
        <path d="M84.839 39.22c1.153.111 2.03.664 1.948 1.227l-.104.488-.06.302c-.09.32-.853.582-1.698.582-.844 0-1.603-.358-1.686-.796-.084-.438-.373-1.552-.401-1.651-.028-.101.846-.265 2.001-.152z"/>
        <path d="M84.925 41.818c.846 0 1.426.409 1.292.908l-.14.442-.151.43c-.18.455-.753.838-1.273.854-.521.016-.948.016-.948 0s-.068-.751-.151-1.634l-.116-.721-.012-.093c-.02-.102.655-.186 1.499-.186z"/>
        <path d="M84.652 44.453c.521-.016.833.243.691.576l-.14.291-.395.838c-.506.819-.938 1.514-.96 1.546s-.077-.125-.063-.419v-.255-.896c-.045-.909.346-1.666.867-1.681z"/>
        <g>
          <path d="M47.822 58.544H39.39c-4.163 0-7.55-3.418-7.55-7.619V44.423l-.979.122c-.645.081-1.277.122-1.882.122-6.517 0-12.174-4.18-14.123-10.294h29.129c1.635 0 2.965 1.332 2.965 2.967 0 .897-.407 1.737-1.098 2.291l-.593.367-.131.088c-.717.493-1.284 1.184-1.641 1.997-.251.59-.376 1.213-.376 1.863 0 2.597 2.113 4.71 4.71 4.71"/>
          <path d="M45.239 38.178l-1.441 1.105c-.698.593-1.268 1.361-1.651 2.245-.326.756-.488 1.57-.488 2.419 0 3.396 2.769 6.164 6.164 6.164v-1.163c0-.642-1.535-1.111-2.713-2.288-.694-.695-1.124-1.655-1.124-2.713 0-.536.104-1.047.302-1.512.291-.664.744-1.221 1.337-1.629.012 0 .349-.186.5-.291 1.035-.698 1.698-1.861 1.698-3.175 0-2.117-1.722-3.839-3.837-3.839H17.197c-1.928 0-3.37.536-3.16 1.179.209.643 1.988 1.147 3.916 1.147h26.032c.836 0 1.511.674 1.511 1.513 0 .303-.094.594-.257.838z"/>
          <path d="M43.206 57.159c-.308 1.242.028 2.258.749 2.258.72 0 1.455-.968 1.634-2.152.18-1.183.032-2.267-.326-2.407-.358-.142-1.589.423-1.897 1.666l-.16.635z"/>
          <path d="M45.589 57.264c-.179 1.184.35 2.152 1.175 2.152.826 0 1.4-.561 1.28-1.245-.122-.685-.222-2.347-.222-2.372 0-.026-.271-.13-.605-.232-.331-.102-1.448.515-1.628 1.697z"/>
          <path d="M38.412 57.083c-.575 1.142-.747 2.135-.384 2.206.364.069 1.482.127 1.628.127.148 0 .654-.974 1.127-2.164l.668-1.688c.472-1.188.628-2.306.346-2.481-.28-.176-1.493.242-2.069 1.386l-1.316 2.614z"/>
          <path d="M40.783 57.253c-.473 1.189-.246 2.164.503 2.164.748 0 1.612-1.016 1.92-2.258l.159-.636c.309-1.243.319-2.381.025-2.532-.294-.15-1.468.386-1.939 1.575l-.668 1.687z"/>
          <path d="M35.001 55.223c-.772 1.021-1.146 2.072-.828 2.337.317.266 1.778-.051 2.44-1.148l1.773-2.947c.661-1.096 1.044-2.132.853-2.301-.193-.169-1.318.201-2.092 1.222l-2.146 2.837z"/>
          <path d="M36.613 56.413c-.662 1.097-.916 2.126-.567 2.289.35.164 1.791-.476 2.366-1.618l1.315-2.613c.576-1.145.867-2.212.65-2.376-.216-.163-1.33.275-1.991 1.371l-1.773 2.947z"/>
          <path d="M32.818 51.496c-.832.973-1.379 2.137-1.216 2.587.164.451 1.4.695 2.151-.34l2.048-2.82c.751-1.035 1.204-2.086 1.007-2.335-.199-.25-1.379-.147-2.211.826l-1.779 2.082z"/>
          <path d="M33.754 53.743c-.751 1.035-1.198 2.111-.994 2.392.205.282 1.469.108 2.241-.912l2.146-2.837c.773-1.021 1.192-2.07.933-2.333-.258-.262-1.527-.165-2.278.87l-2.048 2.82z"/>
          <path d="M32.866 46.686c-1.043.739-1.897 1.797-1.897 2.35s.835.375 1.856-.396l.8-.603c1.021-.771 1.752-1.596 1.624-1.833-.128-.237-1.308-.279-2.352.46l-.031.022z"/>
          <path d="M32.825 48.639c-1.021.771-1.856 1.602-1.856 1.845s.026.8.058 1.238c.032.438.96.747 1.792-.226l1.779-2.082c.832-.973 1.415-1.917 1.297-2.099-.119-.183-1.248-.05-2.27.721l-.8.603z"/>
          <path d="M32.648 44.912c-.924.353-1.68 1.198-1.68 1.879s.854.633 1.897-.106l.031-.021c1.044-.74 1.827-1.499 1.742-1.688-.086-.188-1.065-.416-1.99-.064z"/>
          <path d="M27.449 44.571c-1.249.271-1.246.689.011.93 0 0 .206.04 1.52.04h.676c.722-.07 1.313-.097 1.313-.058s.756-.218 1.68-.57c.925-.352 1.619-.804 1.542-1.006-.076-.201-1.291-.517-2.541-.246l-4.201.91z"/>
          <path d="M21.183 41.696c-1.276.081-1.893.468-1.369.862.524.393 2.027 1.261 2.03 1.261.004 0 1.042-.154 2.307-.344l7.147-1.068c1.265-.188 2.299-.346 2.299-.35 0-.003-.044-.17-.099-.373-.054-.201-1.226-.685-2.502-.604l-9.813.616z"/>
          <path d="M24.15 43.475c-1.265.19-1.816.559-1.225.821s2.241.768 2.244.768c.004 0 1.03-.222 2.279-.493l4.2-.91c1.25-.271 2.222-.655 2.158-.854-.065-.198-1.245-.588-2.51-.4l-7.146 1.068z"/>
          <path d="M18.267 38.523c-1.279.034-1.92.583-1.425 1.219.496.637 3.064 2.034 4.341 1.954l9.813-.616c1.276-.081 2.249-.554 2.159-1.053s-1.291-1.869-2.569-1.834l-12.319.33z"/>
          <path d="M16.79 35.828c-1.279 0-2.124.427-1.879.948.246.521 2.076 1.781 3.355 1.747l12.319-.331c1.278-.034 2.325-.063 2.325-.067s-.024-.341-.053-.751c-.028-.409-1.1-1.547-2.378-1.547H16.79z"/>
          <path d="M46.501 52.886c-.272 1.251-.208 2.372.141 2.489.348.119 1.181-.668 1.181-1.948v-.989c0-1.279-.107-2.328-.238-2.332-.131-.004-.692.982-.965 2.232l-.119.548z"/>
          <path d="M44.296 51.891c-.823.979-1.158 1.969-.741 2.197l.371.176.721.348c.749.301 1.582-.476 1.854-1.727l.118-.547c.272-1.25.326-2.3.121-2.332s-1.396.639-2.218 1.617l-.226.268z"/>
          <path d="M41.759 50.436c-1.11.634-1.711 1.398-1.334 1.699l.349.256.675.488c.742.435 2.024-.009 2.848-.988l.227-.268c.822-.978 1.225-1.887.894-2.018-.333-.132-2.039-.092-3.15.542l-.509.289z"/>
          <path d="M39.656 48.739c-1.24.313-1.915.946-1.5 1.407l.396.384.384.384c.441.37 1.713.156 2.823-.479l.507-.288c1.111-.634 1.827-1.31 1.591-1.502-.237-.192-.781-.768-.785-.768-.003 0-1.021.257-2.261.571l-1.155.291z"/>
          <path d="M38.531 46.828c-1.274.111-2.314.319-2.312.463.004.144.188.759.396 1.041.207.281.775.978.779.978s1.021-.257 2.262-.57l1.154-.291c1.24-.314 2.114-.767 1.94-1.007-.173-.239-1.577-.845-2.852-.733l-1.367.119z"/>
          <path d="M36.227 46.133c-.007.493 1.03.805 2.305.694l1.368-.119c1.274-.111 2.23-.427 2.125-.702-.106-.276-1.315-1.14-2.589-1.268l-.825-.083c-1.274-.126-2.379.987-2.384 1.478z"/>
          <path d="M39.436 44.739c1.273.127 2.274-.072 2.223-.443v-.349-.384c.059-.403-.932-.879-2.199-1.058l-.593-.084c-1.267-.178-2.351.012-2.408.42-.058.41.879 1.687 2.152 1.814l.825.084z"/>
          <path d="M36.727 41.202c-.09.493.873 1.042 2.14 1.22l.593.084c1.268.179 2.398-.072 2.513-.559l.175-.419.186-.431c.269-.416-.548-.9-1.815-1.074l-1.102-.153c-1.27-.176-2.602.839-2.69 1.332z"/>
          <path d="M37.337 38.829c-.124.398.811.866 2.078 1.041l1.102.153c1.268.174 2.308.319 2.311.319s.142-.17.309-.378c.165-.208.911-.871 1.215-1.105.303-.234-.486-.559-1.755-.724l-2.481-.321c-1.27-.164-2.654.619-2.779 1.015z"/>
          <path d="M38.094 36.899c-.158.338.752.751 2.021.915l2.481.321c1.269.165 2.309.299 2.313.299.004 0 .078-.057.168-.127.09-.071.278-.369.419-.663v-.302-.838c-.831-.37-2.559-.674-3.838-.674h-.688c-1.278-.002-2.72.729-2.876 1.069z"/>
          <path d="M35.133 35.828c-1.279 0-2.324.238-2.32.529.003.292 1.087.998 2.365.961l.421-.014c1.278-.038 2.436-.299 2.57-.581.134-.282-.571-.896-1.851-.896h-1.185z"/>
          <path d="M35.178 37.318c-1.278.037-2.317.179-2.307.313.01.134.04.491.04.494s.019.202.041.442 1.056.763 2.209.652c1.155-.113 2.263-.675 2.46-1.25l.187-.455.035-.093c.045-.103-.966-.155-2.244-.117l-.421.014z"/>
          <path d="M35.161 39.22c-1.153.111-2.03.664-1.948 1.227l.104.488.06.302c.09.32.853.582 1.698.582.844 0 1.603-.358 1.686-.796.084-.438.373-1.552.401-1.651.028-.101-.846-.265-2.001-.152z"/>
          <path d="M35.075 41.818c-.846 0-1.426.409-1.292.908l.14.442.151.43c.18.455.753.838 1.273.854.521.016.948.016.948 0s.068-.751.151-1.634l.116-.721.012-.093c.02-.102-.655-.186-1.499-.186z"/>
          <path d="M35.348 44.453c-.521-.016-.833.243-.691.576l.14.291.395.838c.506.819.938 1.514.96 1.546s.077-.125.063-.419v-.255-.896c.045-.909-.346-1.666-.867-1.681z"/>
        </g>
      </g>
      <g fill="#D3D3D3" stroke="#A9A9A9">
        <path d="M59.555 60.277s-.233.252-.645.691c-.415.429-1.019 1.028-1.756 1.728-.743.688-1.612 1.489-2.571 2.305-.474.418-.972.835-1.483 1.246-.512.419-1.024.852-1.554 1.262-1.06.81-2.099 1.655-3.122 2.371-1.021.722-2.012 1.335-2.886 1.822-.879.481-1.638.843-2.186 1.067-.544.231-.878.328-.878.328-.804.233-1.644-.227-1.877-1.029-.146-.504-.015-1.029.298-1.403 0 0 .225-.264.656-.666.431-.412 1.069-.955 1.866-1.563.799-.601 1.764-1.256 2.837-1.896 1.071-.644 2.265-1.25 3.437-1.888.589-.317 1.195-.606 1.782-.906.585-.303 1.169-.586 1.744-.848 1.135-.546 2.219-1.013 3.15-1.412.939-.389 1.73-.698 2.294-.902.568-.194.894-.307.894-.307z"/>
        <path d="M59.555 60.277s-.233.252-.645.691c-.415.429-1.019 1.028-1.756 1.728-.743.688-1.612 1.489-2.571 2.305-.474.418-.972.835-1.483 1.246-.512.419-1.024.852-1.554 1.262-1.06.81-2.099 1.655-3.122 2.371-1.021.722-2.012 1.335-2.886 1.822-.879.481-1.638.843-2.186 1.067-.544.231-.878.328-.878.328-.804.233-1.644-.227-1.877-1.029-.146-.504-.015-1.029.298-1.403 0 0 .225-.264.656-.666.431-.412 1.069-.955 1.866-1.563.799-.601 1.764-1.256 2.837-1.896 1.071-.644 2.265-1.25 3.437-1.888.589-.317 1.195-.606 1.782-.906.585-.303 1.169-.586 1.744-.848 1.135-.546 2.219-1.013 3.15-1.412.939-.389 1.73-.698 2.294-.902.568-.194.894-.307.894-.307z"/>
        <path d="M59.725 60.476s-.162.304-.444.835c-.289.521-.718 1.257-1.248 2.122-.54.858-1.171 1.855-1.888 2.893-.35.526-.722 1.059-1.111 1.589-.387.535-.768 1.086-1.174 1.619-.813 1.057-1.6 2.143-2.401 3.1-.8.959-1.6 1.809-2.316 2.506-.725.692-1.362 1.237-1.835 1.597-.465.364-.762.545-.762.545-.716.433-1.647.207-2.08-.51-.272-.448-.281-.988-.076-1.431 0 0 .148-.315.463-.815.308-.508.784-1.198 1.397-1.992.616-.787 1.378-1.669 2.25-2.565.867-.898 1.863-1.792 2.83-2.714.487-.458.997-.895 1.488-1.335.486-.443.976-.869 1.463-1.27.956-.821 1.883-1.554 2.679-2.181.807-.617 1.492-1.122 1.981-1.465.499-.336.784-.528.784-.528z"/>
        <path d="M59.725 60.476s-.162.304-.444.835c-.289.521-.718 1.257-1.248 2.122-.54.858-1.171 1.855-1.888 2.893-.35.526-.722 1.059-1.111 1.589-.387.535-.768 1.086-1.174 1.619-.813 1.057-1.6 2.143-2.401 3.1-.8.959-1.6 1.809-2.316 2.506-.725.692-1.362 1.237-1.835 1.597-.465.364-.762.545-.762.545-.716.433-1.647.207-2.08-.51-.272-.448-.281-.988-.076-1.431 0 0 .148-.315.463-.815.308-.508.784-1.198 1.397-1.992.616-.787 1.378-1.669 2.25-2.565.867-.898 1.863-1.792 2.83-2.714.487-.458.997-.895 1.488-1.335.486-.443.976-.869 1.463-1.27.956-.821 1.883-1.554 2.679-2.181.807-.617 1.492-1.122 1.981-1.465.499-.336.784-.528.784-.528z"/>
        <path d="M59.939 60.624s-.077.335-.213.919c-.146.579-.368 1.4-.657 2.375-.3.968-.65 2.096-1.074 3.281-.202.6-.423 1.21-.661 1.822-.236.617-.462 1.249-.716 1.868-.512 1.232-.99 2.484-1.518 3.616-.523 1.135-1.074 2.16-1.589 3.02-.521.856-.996 1.548-1.358 2.017-.354.475-.596.724-.596.724-.579.604-1.537.625-2.141.046-.379-.36-.527-.882-.443-1.361 0 0 .063-.342.236-.907.165-.57.447-1.36.833-2.285.393-.922.899-1.97 1.51-3.061.605-1.094 1.337-2.215 2.032-3.354.351-.57.731-1.123 1.09-1.677.356-.553.72-1.091 1.087-1.604.71-1.04 1.416-1.988 2.021-2.8.619-.806 1.151-1.469 1.536-1.928.395-.452.621-.711.621-.711z"/>
        <path d="M59.939 60.624s-.077.335-.213.919c-.146.579-.368 1.4-.657 2.375-.3.968-.65 2.096-1.074 3.281-.202.6-.423 1.21-.661 1.822-.236.617-.462 1.249-.716 1.868-.512 1.232-.99 2.484-1.518 3.616-.523 1.135-1.074 2.16-1.589 3.02-.521.856-.996 1.548-1.358 2.017-.354.475-.596.724-.596.724-.579.604-1.537.625-2.141.046-.379-.36-.527-.882-.443-1.361 0 0 .063-.342.236-.907.165-.57.447-1.36.833-2.285.393-.922.899-1.97 1.51-3.061.605-1.094 1.337-2.215 2.032-3.354.351-.57.731-1.123 1.09-1.677.356-.553.72-1.091 1.087-1.604.71-1.04 1.416-1.988 2.021-2.8.619-.806 1.151-1.469 1.536-1.928.395-.452.621-.711.621-.711z"/>
        <g>
          <path d="M60.184 60.711s.013.343.033.943c.011.597.009 1.447-.019 2.463-.039 1.013-.087 2.193-.189 3.448-.039.631-.096 1.278-.165 1.932-.069.656-.124 1.325-.208 1.989-.178 1.322-.314 2.655-.531 3.886-.213 1.231-.479 2.366-.754 3.329-.282.961-.561 1.752-.789 2.299-.222.549-.389.853-.389.853-.403.733-1.323 1.002-2.058.6-.457-.253-.736-.716-.778-1.2 0 0-.028-.348-.009-.938.014-.593.081-1.43.215-2.424.141-.99.359-2.135.666-3.347.302-1.212.719-2.484 1.095-3.767.193-.639.416-1.272.62-1.898.201-.628.411-1.243.633-1.833.418-1.188.854-2.286 1.23-3.228.388-.938.731-1.717.983-2.259.265-.539.414-.848.414-.848z"/>
          <path d="M60.184 60.711s.013.343.033.943c.011.597.009 1.447-.019 2.463-.039 1.013-.087 2.193-.189 3.448-.039.631-.096 1.278-.165 1.932-.069.656-.124 1.325-.208 1.989-.178 1.322-.314 2.655-.531 3.886-.213 1.231-.479 2.366-.754 3.329-.282.961-.561 1.752-.789 2.299-.222.549-.389.853-.389.853-.403.733-1.323 1.002-2.058.6-.457-.253-.736-.716-.778-1.2 0 0-.028-.348-.009-.938.014-.593.081-1.43.215-2.424.141-.99.359-2.135.666-3.347.302-1.212.719-2.484 1.095-3.767.193-.639.416-1.272.62-1.898.201-.628.411-1.243.633-1.833.418-1.188.854-2.286 1.23-3.228.388-.938.731-1.717.983-2.259.265-.539.414-.848.414-.848z"/>
        </g>
        <g>
          <path d="M60.444 60.731s.101.329.277.902c.164.575.38 1.397.618 2.385.225.989.483 2.143.71 3.381.124.618.237 1.258.339 1.909.104.651.225 1.311.316 1.974.169 1.323.381 2.646.489 3.891.114 1.244.151 2.409.135 3.41-.024 1.002-.087 1.839-.168 2.426-.07.587-.153.926-.153.926-.199.812-1.018 1.31-1.832 1.109-.509-.124-.896-.501-1.064-.958 0 0-.117-.327-.25-.904-.141-.575-.291-1.401-.419-2.395-.122-.993-.206-2.156-.224-3.405-.022-1.249.051-2.588.083-3.921.021-.668.071-1.338.105-1.996.033-.658.077-1.306.139-1.935.096-1.256.232-2.43.354-3.437.132-1.006.262-1.847.365-2.436.115-.589.18-.926.18-.926z"/>
          <path d="M60.444 60.731s.101.329.277.902c.164.575.38 1.397.618 2.385.225.989.483 2.143.71 3.381.124.618.237 1.258.339 1.909.104.651.225 1.311.316 1.974.169 1.323.381 2.646.489 3.891.114 1.244.151 2.409.135 3.41-.024 1.002-.087 1.839-.168 2.426-.07.587-.153.926-.153.926-.199.812-1.018 1.31-1.832 1.109-.509-.124-.896-.501-1.064-.958 0 0-.117-.327-.25-.904-.141-.575-.291-1.401-.419-2.395-.122-.993-.206-2.156-.224-3.405-.022-1.249.051-2.588.083-3.921.021-.668.071-1.338.105-1.996.033-.658.077-1.306.139-1.935.096-1.256.232-2.43.354-3.437.132-1.006.262-1.847.365-2.436.115-.589.18-.926.18-.926z"/>
        </g>
        <g>
          <path d="M61.281 60.188s.333.077.918.212c.578.145 1.397.366 2.369.655.968.298 2.094.649 3.276 1.071.598.202 1.208.422 1.82.659.613.235 1.247.462 1.863.713 1.229.512 2.479.99 3.608 1.516 1.133.523 2.157 1.072 3.015 1.587.855.52 1.546.993 2.014 1.355.471.355.722.595.722.595.604.58.623 1.539.045 2.143-.36.378-.883.525-1.361.442 0 0-.341-.063-.906-.236-.568-.162-1.356-.445-2.279-.831-.92-.391-1.967-.897-3.056-1.506-1.091-.605-2.21-1.335-3.348-2.028-.565-.353-1.12-.73-1.671-1.089-.554-.357-1.091-.72-1.604-1.084-1.036-.711-1.982-1.416-2.793-2.022-.805-.618-1.465-1.149-1.921-1.532-.454-.394-.711-.62-.711-.62z"/>
          <path d="M61.281 60.188s.333.077.918.212c.578.145 1.397.366 2.369.655.968.298 2.094.649 3.276 1.071.598.202 1.208.422 1.82.659.613.235 1.247.462 1.863.713 1.229.512 2.479.99 3.608 1.516 1.133.523 2.157 1.072 3.015 1.587.855.52 1.546.993 2.014 1.355.471.355.722.595.722.595.604.58.623 1.539.045 2.143-.36.378-.883.525-1.361.442 0 0-.341-.063-.906-.236-.568-.162-1.356-.445-2.279-.831-.92-.391-1.967-.897-3.056-1.506-1.091-.605-2.21-1.335-3.348-2.028-.565-.353-1.12-.73-1.671-1.089-.554-.357-1.091-.72-1.604-1.084-1.036-.711-1.982-1.416-2.793-2.022-.805-.618-1.465-1.149-1.921-1.532-.454-.394-.711-.62-.711-.62z"/>
          <path d="M61.134 60.403s.303.16.832.441c.521.291 1.254.716 2.119 1.246.856.538 1.854 1.171 2.888 1.883.523.349 1.057.721 1.588 1.109.531.386 1.083.767 1.615 1.169 1.055.814 2.137 1.598 3.093 2.399.959.798 1.808 1.594 2.502 2.313.69.723 1.235 1.359 1.594 1.829.363.465.544.762.544.762.432.716.203 1.647-.512 2.082-.447.271-.988.279-1.43.073 0 0-.314-.148-.814-.46-.506-.307-1.194-.784-1.986-1.394-.788-.616-1.668-1.377-2.562-2.247-.898-.866-1.789-1.861-2.711-2.825-.454-.487-.891-.995-1.331-1.484-.441-.488-.867-.977-1.269-1.462-.816-.954-1.548-1.881-2.175-2.676-.616-.805-1.117-1.489-1.46-1.979-.336-.495-.525-.779-.525-.779z"/>
          <path d="M61.134 60.403s.303.16.832.441c.521.291 1.254.716 2.119 1.246.856.538 1.854 1.171 2.888 1.883.523.349 1.057.721 1.588 1.109.531.386 1.083.767 1.615 1.169 1.055.814 2.137 1.598 3.093 2.399.959.798 1.808 1.594 2.502 2.313.69.723 1.235 1.359 1.594 1.829.363.465.544.762.544.762.432.716.203 1.647-.512 2.082-.447.271-.988.279-1.43.073 0 0-.314-.148-.814-.46-.506-.307-1.194-.784-1.986-1.394-.788-.616-1.668-1.377-2.562-2.247-.898-.866-1.789-1.861-2.711-2.825-.454-.487-.891-.995-1.331-1.484-.441-.488-.867-.977-1.269-1.462-.816-.954-1.548-1.881-2.175-2.676-.616-.805-1.117-1.489-1.46-1.979-.336-.495-.525-.779-.525-.779z"/>
          <path d="M60.936 60.572s.25.233.688.642c.429.415 1.027 1.016 1.726 1.752.688.742 1.487 1.608 2.302 2.566.416.474.835.969 1.247 1.481.414.51.848 1.021 1.258 1.549.808 1.058 1.651 2.096 2.365 3.117.72 1.02 1.334 2.007 1.818 2.881.479.878.843 1.633 1.067 2.181.229.543.326.876.326.876.234.805-.228 1.645-1.032 1.879-.502.145-1.026.013-1.399-.299 0 0-.265-.225-.667-.657-.41-.427-.952-1.064-1.559-1.859-.602-.799-1.255-1.762-1.894-2.832-.642-1.069-1.246-2.261-1.886-3.431-.313-.589-.604-1.193-.902-1.779-.301-.584-.585-1.167-.847-1.741-.542-1.133-1.01-2.216-1.408-3.146-.388-.938-.694-1.729-.898-2.29-.195-.566-.305-.89-.305-.89z"/>
          <path d="M60.936 60.572s.25.233.688.642c.429.415 1.027 1.016 1.726 1.752.688.742 1.487 1.608 2.302 2.566.416.474.835.969 1.247 1.481.414.51.848 1.021 1.258 1.549.808 1.058 1.651 2.096 2.365 3.117.72 1.02 1.334 2.007 1.818 2.881.479.878.843 1.633 1.067 2.181.229.543.326.876.326.876.234.805-.228 1.645-1.032 1.879-.502.145-1.026.013-1.399-.299 0 0-.265-.225-.667-.657-.41-.427-.952-1.064-1.559-1.859-.602-.799-1.255-1.762-1.894-2.832-.642-1.069-1.246-2.261-1.886-3.431-.313-.589-.604-1.193-.902-1.779-.301-.584-.585-1.167-.847-1.741-.542-1.133-1.01-2.216-1.408-3.146-.388-.938-.694-1.729-.898-2.29-.195-.566-.305-.89-.305-.89z"/>
          <g>
            <path d="M60.7 60.684s.182.29.5.798c.308.512.729 1.248 1.213 2.139.473.896 1.021 1.939 1.559 3.074.28.564.556 1.152.821 1.754.268.6.555 1.206.813 1.82.508 1.233 1.054 2.454 1.479 3.624.432 1.171.77 2.285 1.01 3.254.237.972.392 1.795.466 2.382.083.585.091.933.091.933.017.835-.647 1.528-1.484 1.545-.522.013-.995-.251-1.274-.648 0 0-.198-.286-.475-.808-.285-.519-.645-1.276-1.024-2.2-.375-.927-.756-2.025-1.096-3.226-.343-1.198-.618-2.508-.934-3.803-.15-.648-.275-1.308-.41-1.951-.139-.643-.265-1.279-.368-1.9-.231-1.234-.402-2.403-.547-3.404-.131-1.005-.223-1.85-.274-2.442-.042-.6-.066-.941-.066-.941z"/>
            <path d="M60.7 60.684s.182.29.5.798c.308.512.729 1.248 1.213 2.139.473.896 1.021 1.939 1.559 3.074.28.564.556 1.152.821 1.754.268.6.555 1.206.813 1.82.508 1.233 1.054 2.454 1.479 3.624.432 1.171.77 2.285 1.01 3.254.237.972.392 1.795.466 2.382.083.585.091.933.091.933.017.835-.647 1.528-1.484 1.545-.522.013-.995-.251-1.274-.648 0 0-.198-.286-.475-.808-.285-.519-.645-1.276-1.024-2.2-.375-.927-.756-2.025-1.096-3.226-.343-1.198-.618-2.508-.934-3.803-.15-.648-.275-1.308-.41-1.951-.139-.643-.265-1.279-.368-1.9-.231-1.234-.402-2.403-.547-3.404-.131-1.005-.223-1.85-.274-2.442-.042-.6-.066-.941-.066-.941z"/>
          </g>
          <g>
            <path d="M60.444 60.731s.101.329.277.9c.164.574.38 1.396.617 2.381.225.986.484 2.138.71 3.373.125.617.237 1.257.34 1.906s.224 1.309.314 1.969c.17 1.322.382 2.644.49 3.885.113 1.241.15 2.404.135 3.403-.025 1-.087 1.835-.169 2.422-.07.586-.153.923-.153.923-.2.813-1.02 1.31-1.832 1.109-.508-.125-.896-.502-1.064-.957 0 0-.117-.327-.25-.903-.141-.573-.291-1.398-.419-2.39-.122-.991-.206-2.152-.223-3.398-.022-1.246.051-2.583.082-3.914.021-.666.072-1.335.107-1.992.032-.656.077-1.305.138-1.931.097-1.253.232-2.425.354-3.429.133-1.006.263-1.845.366-2.432.115-.59.18-.925.18-.925z"/>
            <path d="M60.444 60.731s.101.329.277.9c.164.574.38 1.396.617 2.381.225.986.484 2.138.71 3.373.125.617.237 1.257.34 1.906s.224 1.309.314 1.969c.17 1.322.382 2.644.49 3.885.113 1.241.15 2.404.135 3.403-.025 1-.087 1.835-.169 2.422-.07.586-.153.923-.153.923-.2.813-1.02 1.31-1.832 1.109-.508-.125-.896-.502-1.064-.957 0 0-.117-.327-.25-.903-.141-.573-.291-1.398-.419-2.39-.122-.991-.206-2.152-.223-3.398-.022-1.246.051-2.583.082-3.914.021-.666.072-1.335.107-1.992.032-.656.077-1.305.138-1.931.097-1.253.232-2.425.354-3.429.133-1.006.263-1.845.366-2.432.115-.59.18-.925.18-.925z"/>
          </g>
        </g>
        <g>
          <path d="M59.53 60.197s-.259.227-.714.62c-.457.384-1.12.917-1.927 1.535-.811.607-1.758 1.313-2.797 2.023-.516.365-1.055.729-1.606 1.084-.553.362-1.108.74-1.677 1.094-1.139.692-2.261 1.425-3.354 2.031-1.092.609-2.14 1.116-3.062 1.51-.924.386-1.714.667-2.284.833-.564.173-.905.234-.905.234-.825.148-1.611-.396-1.761-1.221-.094-.515.092-1.024.442-1.362 0 0 .251-.239.724-.595.47-.364 1.163-.838 2.019-1.359.858-.516 1.886-1.064 3.021-1.59 1.13-.526 2.383-1.006 3.614-1.519.62-.252 1.252-.478 1.868-.715.613-.238 1.223-.46 1.82-.66 1.188-.424 2.315-.774 3.282-1.075.976-.288 1.795-.512 2.376-.657.586-.133.921-.211.921-.211z"/>
          <path d="M59.53 60.197s-.259.227-.714.62c-.457.384-1.12.917-1.927 1.535-.811.607-1.758 1.313-2.797 2.023-.516.365-1.055.729-1.606 1.084-.553.362-1.108.74-1.677 1.094-1.139.692-2.261 1.425-3.354 2.031-1.092.609-2.14 1.116-3.062 1.51-.924.386-1.714.667-2.284.833-.564.173-.905.234-.905.234-.825.148-1.611-.396-1.761-1.221-.094-.515.092-1.024.442-1.362 0 0 .251-.239.724-.595.47-.364 1.163-.838 2.019-1.359.858-.516 1.886-1.064 3.021-1.59 1.13-.526 2.383-1.006 3.614-1.519.62-.252 1.252-.478 1.868-.715.613-.238 1.223-.46 1.82-.66 1.188-.424 2.315-.774 3.282-1.075.976-.288 1.795-.512 2.376-.657.586-.133.921-.211.921-.211z"/>
          <path d="M59.678 60.413s-.192.285-.528.783c-.343.488-.846 1.175-1.464 1.98-.626.797-1.358 1.723-2.179 2.679-.404.486-.829.978-1.271 1.465-.44.491-.878 1-1.338 1.487-.919.966-1.815 1.964-2.713 2.832-.896.87-1.78 1.631-2.565 2.251-.792.611-1.483 1.086-1.99 1.395-.503.313-.816.463-.816.463-.757.354-1.658.032-2.016-.725-.224-.475-.176-1.013.076-1.432 0 0 .179-.295.545-.761.358-.474.904-1.111 1.597-1.837.696-.719 1.546-1.517 2.507-2.314.955-.803 2.041-1.588 3.097-2.404.533-.403 1.086-.785 1.619-1.172.531-.391 1.064-.763 1.59-1.11 1.036-.718 2.035-1.348 2.893-1.888.865-.531 1.6-.96 2.122-1.25.53-.281.834-.442.834-.442z"/>
          <path d="M59.678 60.413s-.192.285-.528.783c-.343.488-.846 1.175-1.464 1.98-.626.797-1.358 1.723-2.179 2.679-.404.486-.829.978-1.271 1.465-.44.491-.878 1-1.338 1.487-.919.966-1.815 1.964-2.713 2.832-.896.87-1.78 1.631-2.565 2.251-.792.611-1.483 1.086-1.99 1.395-.503.313-.816.463-.816.463-.757.354-1.658.032-2.016-.725-.224-.475-.176-1.013.076-1.432 0 0 .179-.295.545-.761.358-.474.904-1.111 1.597-1.837.696-.719 1.546-1.517 2.507-2.314.955-.803 2.041-1.588 3.097-2.404.533-.403 1.086-.785 1.619-1.172.531-.391 1.064-.763 1.59-1.11 1.036-.718 2.035-1.348 2.893-1.888.865-.531 1.6-.96 2.122-1.25.53-.281.834-.442.834-.442z"/>
          <path d="M59.876 60.582s-.112.326-.308.894c-.205.56-.513 1.354-.9 2.291-.399.933-.867 2.018-1.412 3.152-.263.574-.548 1.158-.848 1.743-.3.589-.59 1.193-.907 1.784-.64 1.171-1.244 2.366-1.888 3.436-.64 1.073-1.295 2.038-1.896 2.838-.608.796-1.152 1.436-1.563 1.864-.402.433-.668.658-.668.658-.638.539-1.594.459-2.134-.181-.338-.397-.432-.931-.298-1.399 0 0 .098-.334.328-.878.226-.55.588-1.307 1.068-2.185.487-.876 1.101-1.865 1.821-2.888.717-1.021 1.561-2.063 2.371-3.122.409-.529.845-1.04 1.26-1.553.413-.514.831-1.011 1.248-1.482.815-.961 1.617-1.83 2.306-2.571.699-.738 1.297-1.343 1.728-1.758.44-.409.692-.643.692-.643z"/>
          <path d="M59.876 60.582s-.112.326-.308.894c-.205.56-.513 1.354-.9 2.291-.399.933-.867 2.018-1.412 3.152-.263.574-.548 1.158-.848 1.743-.3.589-.59 1.193-.907 1.784-.64 1.171-1.244 2.366-1.888 3.436-.64 1.073-1.295 2.038-1.896 2.838-.608.796-1.152 1.436-1.563 1.864-.402.433-.668.658-.668.658-.638.539-1.594.459-2.134-.181-.338-.397-.432-.931-.298-1.399 0 0 .098-.334.328-.878.226-.55.588-1.307 1.068-2.185.487-.876 1.101-1.865 1.821-2.888.717-1.021 1.561-2.063 2.371-3.122.409-.529.845-1.04 1.26-1.553.413-.514.831-1.011 1.248-1.482.815-.961 1.617-1.83 2.306-2.571.699-.738 1.297-1.343 1.728-1.758.44-.409.692-.643.692-.643z"/>
          <g>
            <path d="M60.111 60.695s-.023.341-.065.942c-.054.595-.145 1.439-.278 2.447-.144 1.003-.315 2.173-.548 3.409-.104.621-.228 1.262-.366 1.903-.14.646-.261 1.305-.414 1.958-.316 1.295-.591 2.607-.936 3.808-.341 1.201-.723 2.304-1.097 3.232-.382.926-.741 1.684-1.025 2.204-.278.522-.475.808-.475.808-.479.688-1.422.857-2.109.381-.43-.3-.656-.789-.649-1.275 0 0 .008-.349.09-.935.074-.589.23-1.414.467-2.387.243-.971.58-2.086 1.013-3.259.426-1.174.973-2.396 1.481-3.631.258-.617.547-1.224.815-1.825.265-.603.539-1.191.821-1.756.54-1.139 1.088-2.185 1.561-3.081.485-.893.907-1.632 1.215-2.144.318-.509.499-.799.499-.799z"/>
            <path d="M60.111 60.695s-.023.341-.065.942c-.054.595-.145 1.439-.278 2.447-.144 1.003-.315 2.173-.548 3.409-.104.621-.228 1.262-.366 1.903-.14.646-.261 1.305-.414 1.958-.316 1.295-.591 2.607-.936 3.808-.341 1.201-.723 2.304-1.097 3.232-.382.926-.741 1.684-1.025 2.204-.278.522-.475.808-.475.808-.479.688-1.422.857-2.109.381-.43-.3-.656-.789-.649-1.275 0 0 .008-.349.09-.935.074-.589.23-1.414.467-2.387.243-.971.58-2.086 1.013-3.259.426-1.174.973-2.396 1.481-3.631.258-.617.547-1.224.815-1.825.265-.603.539-1.191.821-1.756.54-1.139 1.088-2.185 1.561-3.081.485-.893.907-1.632 1.215-2.144.318-.509.499-.799.499-.799z"/>
          </g>
          <g>
            <path d="M60.367 60.742s.065.338.181.926c.104.589.234 1.431.366 2.437.119 1.007.257 2.18.352 3.437.061.629.105 1.276.139 1.933.034.659.086 1.329.108 1.996.03 1.336.103 2.674.081 3.922-.017 1.249-.102 2.411-.223 3.405-.13.993-.279 1.82-.422 2.396-.131.575-.249.903-.249.903-.282.787-1.149 1.197-1.938.914-.493-.178-.841-.594-.957-1.065 0 0-.083-.338-.154-.925-.081-.588-.144-1.425-.168-2.427-.018-1 .02-2.165.134-3.41.108-1.243.322-2.565.492-3.891.09-.662.211-1.321.314-1.974.102-.65.213-1.29.34-1.91.227-1.238.485-2.392.711-3.379.236-.987.453-1.811.618-2.385.176-.575.275-.903.275-.903z"/>
            <path d="M60.367 60.742s.065.338.181.926c.104.589.234 1.431.366 2.437.119 1.007.257 2.18.352 3.437.061.629.105 1.276.139 1.933.034.659.086 1.329.108 1.996.03 1.336.103 2.674.081 3.922-.017 1.249-.102 2.411-.223 3.405-.13.993-.279 1.82-.422 2.396-.131.575-.249.903-.249.903-.282.787-1.149 1.197-1.938.914-.493-.178-.841-.594-.957-1.065 0 0-.083-.338-.154-.925-.081-.588-.144-1.425-.168-2.427-.018-1 .02-2.165.134-3.41.108-1.243.322-2.565.492-3.891.09-.662.211-1.321.314-1.974.102-.65.213-1.29.34-1.91.227-1.238.485-2.392.711-3.379.236-.987.453-1.811.618-2.385.176-.575.275-.903.275-.903z"/>
          </g>
          <g>
            <path d="M61.258 60.29s.321.11.889.306c.561.205 1.352.511 2.287.899.933.396 2.017.865 3.148 1.407.571.262 1.154.546 1.741.847.585.297 1.191.59 1.778.903 1.17.638 2.363 1.244 3.43 1.885 1.072.638 2.034 1.292 2.833 1.893.796.606 1.432 1.148 1.861 1.558.431.404.656.669.656.669.539.64.458 1.595-.182 2.135-.397.338-.932.431-1.398.299 0 0-.333-.099-.877-.331-.549-.222-1.303-.585-2.181-1.063-.873-.484-1.862-1.1-2.881-1.819-1.021-.715-2.059-1.558-3.117-2.365-.526-.411-1.038-.844-1.549-1.258-.513-.413-1.01-.829-1.481-1.246-.958-.815-1.823-1.616-2.567-2.303-.733-.699-1.337-1.298-1.75-1.724-.411-.44-.64-.692-.64-.692z"/>
            <path d="M61.258 60.29s.321.11.889.306c.561.205 1.352.511 2.287.899.933.396 2.017.865 3.148 1.407.571.262 1.154.546 1.741.847.585.297 1.191.59 1.778.903 1.17.638 2.363 1.244 3.43 1.885 1.072.638 2.034 1.292 2.833 1.893.796.606 1.432 1.148 1.861 1.558.431.404.656.669.656.669.539.64.458 1.595-.182 2.135-.397.338-.932.431-1.398.299 0 0-.333-.099-.877-.331-.549-.222-1.303-.585-2.181-1.063-.873-.484-1.862-1.1-2.881-1.819-1.021-.715-2.059-1.558-3.117-2.365-.526-.411-1.038-.844-1.549-1.258-.513-.413-1.01-.829-1.481-1.246-.958-.815-1.823-1.616-2.567-2.303-.733-.699-1.337-1.298-1.75-1.724-.411-.44-.64-.692-.64-.692z"/>
            <path d="M61.088 60.488s.284.191.78.526c.488.344 1.173.843 1.977 1.462.796.624 1.723 1.356 2.677 2.173.485.402.976.827 1.463 1.269.488.44.997.878 1.484 1.331.965.92 1.959 1.814 2.826 2.71.866.895 1.629 1.775 2.246 2.563.609.789 1.085 1.479 1.394 1.985.311.5.459.813.459.813.357.758.032 1.66-.725 2.018-.473.223-1.013.174-1.431-.075 0 0-.296-.182-.761-.544-.471-.359-1.106-.904-1.831-1.594-.719-.695-1.514-1.545-2.313-2.502-.8-.955-1.583-2.039-2.398-3.094-.402-.532-.782-1.082-1.17-1.614-.387-.531-.761-1.062-1.107-1.587-.713-1.035-1.345-2.033-1.883-2.889-.529-.864-.956-1.599-1.245-2.12-.283-.529-.442-.831-.442-.831z"/>
            <path d="M61.088 60.488s.284.191.78.526c.488.344 1.173.843 1.977 1.462.796.624 1.723 1.356 2.677 2.173.485.402.976.827 1.463 1.269.488.44.997.878 1.484 1.331.965.92 1.959 1.814 2.826 2.71.866.895 1.629 1.775 2.246 2.563.609.789 1.085 1.479 1.394 1.985.311.5.459.813.459.813.357.758.032 1.66-.725 2.018-.473.223-1.013.174-1.431-.075 0 0-.296-.182-.761-.544-.471-.359-1.106-.904-1.831-1.594-.719-.695-1.514-1.545-2.313-2.502-.8-.955-1.583-2.039-2.398-3.094-.402-.532-.782-1.082-1.17-1.614-.387-.531-.761-1.062-1.107-1.587-.713-1.035-1.345-2.033-1.883-2.889-.529-.864-.956-1.599-1.245-2.12-.283-.529-.442-.831-.442-.831z"/>
            <path d="M60.872 60.635s.225.258.618.711c.384.457.916 1.117 1.532 1.923.607.81 1.313 1.756 2.021 2.792.365.514.729 1.052 1.086 1.604.358.551.737 1.104 1.088 1.671.694 1.137 1.423 2.257 2.028 3.348.608 1.088 1.116 2.138 1.506 3.055.386.925.667 1.713.832 2.281.174.563.235.906.235.906.147.822-.399 1.61-1.224 1.76-.514.091-1.022-.095-1.361-.444 0 0-.239-.251-.594-.723-.363-.467-.837-1.157-1.356-2.013-.515-.857-1.063-1.883-1.585-3.014-.528-1.131-1.005-2.379-1.52-3.609-.249-.617-.475-1.248-.711-1.863-.235-.613-.458-1.222-.658-1.819-.422-1.185-.773-2.311-1.072-3.278-.286-.972-.51-1.79-.655-2.369-.133-.585-.21-.919-.21-.919z"/>
            <path d="M60.872 60.635s.225.258.618.711c.384.457.916 1.117 1.532 1.923.607.81 1.313 1.756 2.021 2.792.365.514.729 1.052 1.086 1.604.358.551.737 1.104 1.088 1.671.694 1.137 1.423 2.257 2.028 3.348.608 1.088 1.116 2.138 1.506 3.055.386.925.667 1.713.832 2.281.174.563.235.906.235.906.147.822-.399 1.61-1.224 1.76-.514.091-1.022-.095-1.361-.444 0 0-.239-.251-.594-.723-.363-.467-.837-1.157-1.356-2.013-.515-.857-1.063-1.883-1.585-3.014-.528-1.131-1.005-2.379-1.52-3.609-.249-.617-.475-1.248-.711-1.863-.235-.613-.458-1.222-.658-1.819-.422-1.185-.773-2.311-1.072-3.278-.286-.972-.51-1.79-.655-2.369-.133-.585-.21-.919-.21-.919z"/>
            <g>
              <path d="M60.627 60.722s.15.308.413.846c.252.542.597 1.317.983 2.254.377.939.813 2.036 1.229 3.221.219.591.431 1.205.634 1.832.202.625.424 1.256.617 1.895.376 1.278.792 2.55 1.094 3.758.306 1.21.523 2.353.664 3.344.133.989.201 1.824.212 2.417.022.589-.006.937-.006.937-.071.831-.804 1.451-1.638 1.381-.521-.044-.963-.356-1.2-.779 0 0-.166-.306-.387-.854-.229-.543-.508-1.334-.79-2.294-.274-.961-.539-2.094-.752-3.322-.215-1.229-.353-2.559-.529-3.88-.083-.661-.138-1.329-.205-1.982-.072-.654-.13-1.299-.168-1.929-.1-1.253-.148-2.431-.188-3.442-.025-1.015-.028-1.863-.018-2.459.022-.602.035-.944.035-.944z"/>
              <path d="M60.627 60.722s.15.308.413.846c.252.542.597 1.317.983 2.254.377.939.813 2.036 1.229 3.221.219.591.431 1.205.634 1.832.202.625.424 1.256.617 1.895.376 1.278.792 2.55 1.094 3.758.306 1.21.523 2.353.664 3.344.133.989.201 1.824.212 2.417.022.589-.006.937-.006.937-.071.831-.804 1.451-1.638 1.381-.521-.044-.963-.356-1.2-.779 0 0-.166-.306-.387-.854-.229-.543-.508-1.334-.79-2.294-.274-.961-.539-2.094-.752-3.322-.215-1.229-.353-2.559-.529-3.88-.083-.661-.138-1.329-.205-1.982-.072-.654-.13-1.299-.168-1.929-.1-1.253-.148-2.431-.188-3.442-.025-1.015-.028-1.863-.018-2.459.022-.602.035-.944.035-.944z"/>
            </g>
            <g>
              <path d="M60.367 60.742s.065.336.181.924c.104.588.234 1.427.367 2.433.119 1.004.257 2.175.353 3.429.059.627.104 1.274.137 1.93.035.657.087 1.326.108 1.992.03 1.333.104 2.668.083 3.915-.019 1.247-.103 2.407-.223 3.398-.129.991-.279 1.816-.421 2.391-.131.576-.251.902-.251.902-.281.786-1.148 1.195-1.937.911-.492-.177-.84-.592-.958-1.063 0 0-.081-.337-.153-.923-.081-.586-.144-1.423-.169-2.422-.017-.998.021-2.161.133-3.402.109-1.243.322-2.563.493-3.885.09-.661.211-1.319.315-1.969.1-.65.211-1.29.338-1.905.227-1.237.485-2.389.71-3.375.237-.984.455-1.807.618-2.38.177-.574.276-.901.276-.901z"/>
              <path d="M60.367 60.742s.065.336.181.924c.104.588.234 1.427.367 2.433.119 1.004.257 2.175.353 3.429.059.627.104 1.274.137 1.93.035.657.087 1.326.108 1.992.03 1.333.104 2.668.083 3.915-.019 1.247-.103 2.407-.223 3.398-.129.991-.279 1.816-.421 2.391-.131.576-.251.902-.251.902-.281.786-1.148 1.195-1.937.911-.492-.177-.84-.592-.958-1.063 0 0-.081-.337-.153-.923-.081-.586-.144-1.423-.169-2.422-.017-.998.021-2.161.133-3.402.109-1.243.322-2.563.493-3.885.09-.661.211-1.319.315-1.969.1-.65.211-1.29.338-1.905.227-1.237.485-2.389.71-3.375.237-.984.455-1.807.618-2.38.177-.574.276-.901.276-.901z"/>
            </g>
          </g>
        </g>
      </g>
      <g fill="#D3D3D3" stroke="#A9A9A9">
        <path d="M65.222 83.511c-.963 0-1.745-.781-1.745-1.745v-6.803c0-.963.782-1.745 1.745-1.745.964 0 1.744.782 1.744 1.745v6.803c0 .963-.78 1.745-1.744 1.745z"/>
        <g stroke-linejoin="round">
          <path d="M68.596 69.82l-3.374-2.664-3.372 2.664v9.968l3.372-4.825 3.374-4.839z"/>
          <path d="M68.591 64.504v15.278l-6.886-9.857z"/>
          <path d="M68.596 76.998l-5.63-8.061"/>
          <path d="M68.596 72.647l-3.665-5.257"/>
        </g>
        <g strokeLinecap="round" stroke-linejoin="round">
          <path d="M76.948 86.311c.031-.093.059-.188.059-.293 0-.101-.027-.194-.058-.286h3.828l1.806-1.715h-5.06c-.344.41-.721.784-1.113 1.138-.104-.04-.215-.066-.334-.066H42.841l.702-1.653-6.126 2.583 6.126 2.584-.702-1.654h33.235c.089 0 .168-.026.25-.05l1.094 1.086.091.103h5.072l-1.806-1.775h-3.829z"/>
          <path d="M75.57 92.703c.063-.073.119-.156.158-.251.038-.095.049-.19.056-.286l3.537 1.465 2.324-.894-4.674-1.937c-.475.248-.966.449-1.466.626-.08-.077-.172-.146-.281-.19L44.519 78.518l1.282-1.259-6.649.042 4.671 4.732-.016-1.796 30.705 12.718c.08.033.166.04.25.051l.597 1.418.042.131 4.688 1.941-.988-2.33-3.531-1.463z"/>
          <path d="M79.324 78.411l-3.539 1.466c-.006-.098-.018-.197-.057-.293-.038-.092-.091-.173-.152-.246l3.526-1.461 1.012-2.275-4.675 1.937c-.16.511-.365 1-.593 1.477-.114.002-.229.021-.335.065L43.805 91.798l.016-1.795-4.67 4.731 6.648.043-1.281-1.259L75.225 80.8c.082-.034.145-.09.212-.142l1.425.582.122.063 4.688-1.942-2.348-.95z"/>
        </g>
        <path d="M65.77 82.423l.303 1.366c.049.222-.091.439-.312.489-.188.041-.373-.053-.456-.217l-.63-1.248c-.146-.289-.029-.642.26-.787.288-.146.642-.031.787.259.022.044.039.093.048.138z"/>
        <path d="M67.087 81.237s.135-.026.338-.015c.104.013.211.019.366.058.146.036.303.061.454.115.312.128.523.27.724.37.185.122.297.229.297.229l.138.133c.155.146.16.389.015.543-.101.106-.247.143-.379.107 0 0-.126-.034-.314-.085-.181-.041-.469-.127-.676-.162-.111-.023-.222-.047-.325-.068-.094-.031-.225-.031-.323-.039-.203-.014-.339-.022-.339-.022-.317-.021-.56-.297-.538-.615.018-.268.216-.48.467-.53l.095-.019z"/>
        <path d="M64.165 83.504s-.08.071-.201.176c-.141.106-.234.236-.354.364-.112.113-.26.302-.354.41-.098.117-.16.196-.16.196-.145.177-.404.203-.581.059-.123-.1-.174-.255-.145-.4l.04-.198s.024-.12.083-.285c.081-.159.149-.346.289-.576.063-.115.158-.199.233-.293.082-.098.146-.151.203-.209.121-.105.224-.147.222-.151l.109-.051c.289-.131.63-.004.763.286.109.236.042.51-.147.672z"/>
        <path d="M54.78 83.511c.964 0 1.745-.781 1.745-1.745v-6.803c0-.963-.781-1.745-1.745-1.745-.963 0-1.744.782-1.744 1.745v6.803c0 .963.781 1.745 1.744 1.745z"/>
        <g stroke-linejoin="round">
          <path d="M51.407 70.124l3.373 4.839 3.373 4.825V69.82l-3.373-2.664-3.373 2.664z"/>
          <path d="M51.411 64.504v15.278l6.886-9.857z"/>
          <path d="M57.037 68.937l-5.63 8.061"/>
          <path d="M55.071 67.39l-3.664 5.257"/>
        </g>
        <g>
          <path d="M54.232 82.423l-.303 1.366c-.049.222.091.439.313.489.188.041.373-.053.455-.217l.63-1.248c.146-.289.029-.642-.259-.787-.289-.146-.642-.031-.787.259-.022.044-.039.093-.049.138z"/>
          <path d="M52.916 81.237s-.136-.026-.339-.015c-.104.013-.211.019-.365.058-.146.036-.304.061-.455.115-.311.128-.522.27-.723.37-.185.122-.297.229-.297.229l-.139.133c-.155.146-.16.389-.015.543.101.106.248.143.379.107 0 0 .127-.034.314-.085.182-.041.469-.127.676-.162.111-.023.222-.047.326-.068.093-.031.225-.031.322-.039.204-.014.339-.022.339-.022.318-.021.56-.297.538-.615-.018-.268-.215-.48-.466-.53l-.095-.019z"/>
          <path d="M55.837 83.504s.081.071.201.176c.141.106.234.236.354.364.11.113.259.302.354.41.097.117.159.196.159.196.145.177.405.203.581.059.122-.1.174-.255.145-.4l-.04-.198s-.023-.12-.083-.285c-.08-.159-.148-.346-.288-.576-.064-.115-.159-.199-.234-.293-.082-.098-.145-.151-.203-.209-.12-.105-.224-.147-.221-.151l-.11-.051c-.289-.131-.63-.004-.762.286-.109.236-.042.51.147.672z"/>
        </g>
      </g>
      <g fill="#E0C22D" stroke="#BA921A">
        <path d="M60.903 72.215c-.49.416-1.285.416-1.775.002l-7.752-6.554c-1.962-1.657-3.554-5.086-3.554-7.655V46.604c0-2.569 2.083-4.652 4.653-4.652h15.049c2.57 0 4.653 2.083 4.653 4.652v11.405c0 2.568-1.59 6-3.55 7.66l-7.724 6.546z"/>
        <g stroke-linejoin="round">
          <path d="M48.985 51.879v-5.28c0-1.924 1.565-3.489 3.49-3.489h15.049c1.925 0 3.49 1.565 3.49 3.489v5.28H48.985z"/>
          <path d="M68.468 53.093h2.547v4.917c0 1.966-1.116 4.609-2.547 6.192V53.093z"/>
          <path d="M63.594 53.093h2.548v13.159l-2.548 2.159z"/>
          <path d="M60.018 71.362c-.067 0-.117-.021-.133-.034l-1.152-.973V53.093h2.535V70.38l-1.111.943c-.022.018-.072.039-.139.039z"/>
          <path d="M53.858 66.239V53.093h2.548v15.298z"/>
          <path d="M51.532 64.197c-1.428-1.587-2.547-4.229-2.547-6.188v-4.917h2.547v11.105z"/>
        </g>
      </g>
      <path fill="#E0C22D" stroke="#BA921A" stroke-width="2" stroke-linejoin="round" d="M59.607 9.874l1.952 6.005h6.313l-5.108 3.711 1.951 6.006-5.108-3.712-5.107 3.712 1.95-6.006-5.108-3.711h6.315z"/>
      <path fill="#E0C22D" stroke="#BA921A" stroke-width="2" stroke-linejoin="round" d="M59.607 91.987l1.952 6.005h6.313l-5.108 3.71 1.951 6.006-5.108-3.712-5.107 3.712 1.95-6.006-5.108-3.71h6.315z"/>
    </g>
  </g>
</svg>
