<svg xmlns="http://www.w3.org/2000/svg" viewBox="0 0 120 120">
  <g id="Junior_x5F_Ranger">
    <g id="inactive">
      <path fill="#8133FF" d="M88.999 9.771l11.682 26.741 17.318 23.489-17.318 23.486-11.682 26.741-29-3.253L31 110.229 19.319 83.486 2 60l17.319-23.486L31 9.773l29 3.252z"/>
      <path fill="#5A24B2" d="M59.999 60v.001z"/>
      <path fill="#5A24B2" d="M59.999 60.001H60l40.681 23.486 17.318-23.486-58-.001z"/>
      <path fill="#5A24B2" d="M59.999 60.001L31 110.229l28.999-3.254L60 60.001z"/>
      <path fill="#5A24B2" d="M100.681 36.512L88.999 9.771l-29 50.228z"/>
      <path fill="#5A24B2" d="M59.998 60H2l17.319 23.486L59.998 60z"/>
      <path fill="#5A24B2" d="M60 60.001l28.999 50.227 11.682-26.741z"/>
      <path fill="#5A24B2" d="M59.999 59.999L60 13.025 31 9.773 59.999 60z"/>
      <path fill="#5A24B2" d="M19.319 36.514L2 60h57.998z"/>
      <g>
        <g fill="#3A1772">
          <path d="M59.999 59.999l27.693-49.868c.257-.459.834-.623 1.293-.369.459.255.624.834.371 1.293-.005.008-.012.02-.017.027l-29.34 48.917z"/>
          <path d="M60.95 13.807l-.951 46.192-.949-46.192c-.011-.523.405-.959.931-.97.524-.01.958.407.97.933-.001.009-.001.027-.001.037z"/>
          <path d="M59.999 59.999l57.034-.95c.526-.01.958.409.967.936.009.523-.41.957-.936.965h-.031l-57.034-.951z"/>
          <path d="M100.478 37.727L59.999 59.999 99.527 36.08c.449-.272 1.035-.129 1.307.32.271.449.128 1.035-.321 1.306-.01.007-.025.015-.035.021z"/>
          <path d="M59.999 59.999l29.341 48.917c.27.45.124 1.034-.326 1.304-.45.271-1.035.125-1.305-.326-.005-.008-.012-.02-.017-.025l-27.693-49.87z"/>
          <path d="M99.527 83.919l-39.528-23.92 40.479 22.273c.461.252.628.831.377 1.291-.255.46-.834.628-1.294.374-.009-.005-.023-.012-.034-.018z"/>
          <path d="M60 59.998l-27.693 49.87c-.255.457-.834.623-1.292.367-.459-.254-.625-.832-.37-1.291.003-.008.01-.021.015-.028L60 59.998z"/>
          <path d="M59.05 106.19L60 59.998l.95 46.192c.012.525-.406.961-.93.97-.526.012-.96-.405-.971-.93 0-.012.001-.027.001-.04z"/>
          <path d="M60.001 59.999l-57.034.95c-.525.009-.958-.409-.967-.934-.009-.524.41-.958.935-.966h.032l57.034.95z"/>
          <path d="M19.521 82.272l40.48-22.273-39.529 23.92c-.449.271-1.034.127-1.306-.322s-.128-1.033.322-1.307c.01-.004.024-.012.033-.018z"/>
          <path d="M60.001 60.001L30.66 11.082c-.269-.449-.124-1.033.327-1.304.451-.27 1.034-.124 1.304.327.005.008.012.019.017.027l27.693 49.869z"/>
          <path d="M20.473 36.08l39.528 23.921-40.48-22.274c-.459-.254-.627-.831-.374-1.292.253-.46.831-.628 1.291-.375.011.006.024.014.035.02z"/>
        </g>
        <path fill="none" stroke="#3A1772" stroke-width="2" stroke-linejoin="round" strokeMiterlimit="10" d="M88.999 9.771l11.682 26.741 17.318 23.489-17.318 23.486-11.682 26.741-29-3.253L31 110.229 19.319 83.486 2 60l17.319-23.486L31 9.773l29 3.252z"/>
      </g>
      <g>
        <path fill="#8133FF" d="M59.999 2.002L83.485 19.32l26.743 11.682-3.254 29 3.254 28.999-26.743 11.682L59.999 118l-23.487-17.317L9.771 89.001l3.254-28.999-3.254-29L36.512 19.32z"/>
        <path fill="#5A24B2" d="M59.999 60.001v.001z"/>
        <path fill="#5A24B2" d="M59.999 60.002H106.974l3.254-29-50.229 29z"/>
        <path fill="#5A24B2" d="M59.999 60.002V118l23.486-17.317L60 60.002z"/>
        <path fill="#5A24B2" d="M83.485 19.32L59.999 2.002v57.999z"/>
        <path fill="#5A24B2" d="M59.998 60.002L9.771 89.001l26.741 11.682 23.486-40.681z"/>
        <path fill="#5A24B2" d="M60 60.002l50.228 28.999-3.254-28.999z"/>
        <path fill="#5A24B2" d="M59.999 60.001L36.512 19.32 9.771 31.002l50.228 29z"/>
        <path fill="#5A24B2" d="M13.025 60.002L9.771 89.001l50.227-28.999z"/>
        <g>
          <g fill="#3A1772">
            <path d="M59.999 60.001l-.95-57.034c-.01-.525.409-.957.935-.967.523-.009.956.41.965.936v.031l-.95 57.034z"/>
            <path d="M37.727 19.521L59.999 60 36.08 20.473c-.272-.449-.128-1.034.32-1.306.449-.271 1.035-.128 1.306.321.007.01.015.024.021.033z"/>
            <path d="M59.998 60.001l48.918-29.341c.45-.269 1.034-.123 1.305.327s.124 1.034-.326 1.304c-.008.005-.02.012-.026.017L59.998 60.001z"/>
            <path d="M83.919 20.473L59.998 60.001l22.274-40.479c.252-.459.831-.627 1.291-.373.46.252.628.83.374 1.291-.005.009-.012.023-.018.033z"/>
            <path d="M59.998 60l49.87 27.693c.457.257.623.834.368 1.293-.254.459-.833.624-1.292.371-.008-.005-.021-.012-.028-.017L59.998 60z"/>
            <path d="M106.19 60.95L59.998 60l46.192-.95c.525-.011.96.405.97.931.012.525-.405.959-.93.97-.012 0-.027-.001-.04-.001z"/>
            <path d="M59.998 59.999l.951 57.033c.009.526-.41.958-.934.967-.525.009-.959-.41-.967-.936v-.031l.95-57.033z"/>
            <path d="M82.272 100.478L59.998 59.999l23.921 39.528c.271.449.127 1.035-.322 1.307-.449.271-1.033.128-1.307-.321-.004-.01-.012-.025-.018-.035z"/>
            <path d="M60 59.999L11.082 89.34c-.45.27-1.034.124-1.304-.326s-.124-1.035.327-1.305c.008-.005.019-.012.027-.017L60 59.999z"/>
            <path d="M36.081 99.527L60 59.999l-22.272 40.479c-.254.461-.832.628-1.292.377-.46-.255-.627-.834-.375-1.293.005-.01.013-.024.02-.035z"/>
            <path d="M60.001 60.001L10.132 32.308c-.459-.255-.624-.835-.37-1.293.255-.458.834-.624 1.292-.369.008.003.02.011.027.015l48.92 29.34z"/>
            <path d="M13.808 59.05l46.193.951-46.193.949c-.524.012-.959-.405-.97-.931-.01-.525.407-.959.932-.97.01 0 .027.001.038.001z"/>
          </g>
          <path fill="none" stroke="#3A1772" stroke-width="2" stroke-linejoin="round" strokeMiterlimit="10" d="M59.999 2.002L83.485 19.32l26.743 11.682-3.254 29 3.254 28.999-26.743 11.682L59.999 118l-23.487-17.317L9.771 89.001l3.254-28.999-3.254-29L36.512 19.32z"/>
        </g>
      </g>
    </g>
    <g id="active">
      <path fill="#C5AB84" d="M88.999 9.771l11.682 26.741 17.318 23.489-17.318 23.486-11.682 26.741-29-3.253L31 110.229 19.319 83.486 2 60l17.319-23.486L31 9.773l29 3.252z"/>
      <path fill="#B08D57" d="M59.999 60v.001z"/>
      <path fill="#B08D57" d="M59.999 60.001H60l40.681 23.486 17.318-23.486-58-.001z"/>
      <path fill="#B08D57" d="M59.999 60.001L31 110.229l28.999-3.254L60 60.001z"/>
      <path fill="#B08D57" d="M100.681 36.512L88.999 9.771l-29 50.228z"/>
      <path fill="#B08D57" d="M59.998 60H2l17.319 23.486L59.998 60z"/>
      <path fill="#B08D57" d="M60 60.001l28.999 50.227 11.682-26.741z"/>
      <path fill="#B08D57" d="M59.999 59.999L60 13.025 31 9.773 59.999 60z"/>
      <path fill="#B08D57" d="M19.319 36.514L2 60h57.998z"/>
      <g>
        <g fill="#8F7143">
          <path d="M59.999 59.999l27.693-49.868c.257-.459.834-.623 1.293-.369.459.255.624.834.371 1.293-.005.008-.012.02-.017.027l-29.34 48.917z"/>
          <path d="M60.95 13.807l-.951 46.192-.949-46.192c-.011-.523.405-.959.931-.97.524-.01.958.407.97.933-.001.009-.001.027-.001.037z"/>
          <path d="M59.999 59.999l57.034-.95c.526-.01.958.409.967.936.009.523-.41.957-.936.965h-.031l-57.034-.951z"/>
          <path d="M100.478 37.727L59.999 59.999 99.527 36.08c.449-.272 1.035-.129 1.307.32.271.449.128 1.035-.321 1.306-.01.007-.025.015-.035.021z"/>
          <path d="M59.999 59.999l29.341 48.917c.27.45.124 1.034-.326 1.304-.45.271-1.035.125-1.305-.326-.005-.008-.012-.02-.017-.025l-27.693-49.87z"/>
          <path d="M99.527 83.919l-39.528-23.92 40.479 22.273c.461.252.628.831.377 1.291-.255.46-.834.628-1.294.374-.009-.005-.023-.012-.034-.018z"/>
          <path d="M60 59.998l-27.693 49.87c-.255.457-.834.623-1.292.367-.459-.254-.625-.832-.37-1.291.003-.008.01-.021.015-.028L60 59.998z"/>
          <path d="M59.05 106.19L60 59.998l.95 46.192c.012.525-.406.961-.93.97-.526.012-.96-.405-.971-.93 0-.012.001-.027.001-.04z"/>
          <path d="M60.001 59.999l-57.034.95c-.525.009-.958-.409-.967-.934-.009-.524.41-.958.935-.966h.032l57.034.95z"/>
          <path d="M19.521 82.272l40.48-22.273-39.529 23.92c-.449.271-1.034.127-1.306-.322s-.128-1.033.322-1.307c.01-.004.024-.012.033-.018z"/>
          <path d="M60.001 60.001L30.66 11.082c-.269-.449-.124-1.033.327-1.304.451-.27 1.034-.124 1.304.327.005.008.012.019.017.027l27.693 49.869z"/>
          <path d="M20.473 36.08l39.528 23.921-40.48-22.274c-.459-.254-.627-.831-.374-1.292.253-.46.831-.628 1.291-.375.011.006.024.014.035.02z"/>
        </g>
        <path fill="none" stroke="#8F7143" stroke-width="2" stroke-linejoin="round" strokeMiterlimit="10" d="M88.999 9.771l11.682 26.741 17.318 23.489-17.318 23.486-11.682 26.741-29-3.253L31 110.229 19.319 83.486 2 60l17.319-23.486L31 9.773l29 3.252z"/>
      </g>
      <g>
        <path fill="#C5AB84" d="M59.999 2.002L83.485 19.32l26.743 11.682-3.254 29 3.254 28.999-26.743 11.682L59.999 118l-23.487-17.317L9.771 89.001l3.254-28.999-3.254-29L36.512 19.32z"/>
        <path fill="#B08D57" d="M59.999 60.001v.001z"/>
        <path fill="#B08D57" d="M59.999 60.002H106.974l3.254-29-50.229 29z"/>
        <path fill="#B08D57" d="M59.999 60.002V118l23.486-17.317L60 60.002z"/>
        <path fill="#B08D57" d="M83.485 19.32L59.999 2.002v57.999z"/>
        <path fill="#B08D57" d="M59.998 60.002L9.771 89.001l26.741 11.682 23.486-40.681z"/>
        <path fill="#B08D57" d="M60 60.002l50.228 28.999-3.254-28.999z"/>
        <path fill="#B08D57" d="M59.999 60.001L36.512 19.32 9.771 31.002l50.228 29z"/>
        <path fill="#B08D57" d="M13.025 60.002L9.771 89.001l50.227-28.999z"/>
        <g>
          <g fill="#8F7143">
            <path d="M59.999 60.001l-.95-57.034c-.01-.525.409-.957.935-.967.523-.009.956.41.965.936v.031l-.95 57.034z"/>
            <path d="M37.727 19.521L59.999 60 36.08 20.473c-.272-.449-.128-1.034.32-1.306.449-.271 1.035-.128 1.306.321.007.01.015.024.021.033z"/>
            <path d="M59.998 60.001l48.918-29.341c.45-.269 1.034-.123 1.305.327s.124 1.034-.326 1.304c-.008.005-.02.012-.026.017L59.998 60.001z"/>
            <path d="M83.919 20.473L59.998 60.001l22.274-40.479c.252-.459.831-.627 1.291-.373.46.252.628.83.374 1.291-.005.009-.012.023-.018.033z"/>
            <path d="M59.998 60l49.87 27.693c.457.257.623.834.368 1.293-.254.459-.833.624-1.292.371-.008-.005-.021-.012-.028-.017L59.998 60z"/>
            <path d="M106.19 60.95L59.998 60l46.192-.95c.525-.011.96.405.97.931.012.525-.405.959-.93.97-.012 0-.027-.001-.04-.001z"/>
            <path d="M59.998 59.999l.951 57.033c.009.526-.41.958-.934.967-.525.009-.959-.41-.967-.936v-.031l.95-57.033z"/>
            <path d="M82.272 100.478L59.998 59.999l23.921 39.528c.271.449.127 1.035-.322 1.307-.449.271-1.033.128-1.307-.321-.004-.01-.012-.025-.018-.035z"/>
            <path d="M60 59.999L11.082 89.34c-.45.27-1.034.124-1.304-.326s-.124-1.035.327-1.305c.008-.005.019-.012.027-.017L60 59.999z"/>
            <path d="M36.081 99.527L60 59.999l-22.272 40.479c-.254.461-.832.628-1.292.377-.46-.255-.627-.834-.375-1.293.005-.01.013-.024.02-.035z"/>
            <path d="M60.001 60.001L10.132 32.308c-.459-.255-.624-.835-.37-1.293.255-.458.834-.624 1.292-.369.008.003.02.011.027.015l48.92 29.34z"/>
            <path d="M13.808 59.05l46.193.951-46.193.949c-.524.012-.959-.405-.97-.931-.01-.525.407-.959.932-.97.01 0 .027.001.038.001z"/>
          </g>
          <path fill="none" stroke="#8F7143" stroke-width="2" stroke-linejoin="round" strokeMiterlimit="10" d="M59.999 2.002L83.485 19.32l26.743 11.682-3.254 29 3.254 28.999-26.743 11.682L59.999 118l-23.487-17.317L9.771 89.001l3.254-28.999-3.254-29L36.512 19.32z"/>
        </g>
      </g>
    </g>
  </g>
</svg>
