<?xml version="1.0" encoding="utf-8"?>
<!-- Generator: Adobe Illustrator 24.1.3, SVG Export Plug-In . SVG Version: 6.00 Build 0)  -->
<svg version="1.1" id="mantis_x5F_head" xmlns="http://www.w3.org/2000/svg" xmlns:xlink="http://www.w3.org/1999/xlink" x="0px"
	 y="0px" viewBox="0 0 60 50" enable-background="new 0 0 60 50" xml:space="preserve">
<path id="main_17_" fill="#78B300" d="M38.892,45.766c-4.936,5.576-12.977,5.539-17.868-0.083S9.403,30.189,6.066,23.744
	s0.665-13.625,8.892-15.956s21.727-2.331,30,0s12.312,9.549,8.975,16.039C50.597,30.317,43.829,40.19,38.892,45.766z"/>
<path id="specular" fill="#ACFF00" d="M31.937,45.484c-1.069,0.248-2.817,0.246-3.885-0.004c0,0-2.407-0.564-4.018-2.415
	c-1.724-1.982-4.693-5.98-4.693-5.98c-0.654-0.881-0.553-2.235,0.224-3.009c0,0,4.37-4.354,4.37-12.087
	c0-5.497-2.234-9.581-2.234-9.581c-0.526-0.962-0.065-1.844,1.026-1.959c0,0,3.978-0.42,7.216-0.42c3.274,0,7.322,0.432,7.322,0.432
	c1.091,0.116,1.554,0.999,1.028,1.963c0,0-2.225,4.08-2.225,9.566c0,7.759,4.398,12.111,4.398,12.111
	c0.78,0.772,0.88,2.121,0.222,2.999c0,0-3.024,4.038-4.781,6.023C34.3,44.936,31.937,45.484,31.937,45.484z"/>
<g>
	<path id="left_x5F_antenna_3_" fill="none" stroke="#78B300" stroke-width="2" stroke-linecap="round" stroke-miterlimit="10" d="
		M35.23,7.524c0,0,2.43-1.554,5.4-3.454c2.971-1.899,8.247-3.232,11.724-2.958c3.477,0.274,6.322,0.497,6.322,0.497"/>
	<path id="left_x5F_antenna_1_" fill="none" stroke="#78B300" stroke-width="2" stroke-linecap="round" stroke-miterlimit="10" d="
		M24.77,7.524c0,0-2.43-1.554-5.4-3.454c-2.971-1.899-8.247-3.232-11.724-2.958C4.169,1.385,1.324,1.609,1.324,1.609"/>
</g>
<g id="right_x5F_eye_4_">
	<path id="eye_3_" fill="#78B300" d="M19.945,21.99c0-6.064-1.369-10.979-7.978-10.979C5.358,11.011,0,15.926,0,21.99
		c0,6.063,5.358,10.979,11.967,10.979C18.576,32.969,19.945,28.053,19.945,21.99z"/>
	<path id="shadoe_3_" fill="none" stroke="#ACFF00" stroke-linecap="round" stroke-miterlimit="10" d="M11.967,32.969
		c6.609,0,7.978-4.916,7.978-10.979c0-6.064-1.369-10.979-7.978-10.979"/>
	<circle id="iris_3_" fill="#5A24B2" cx="8.426" cy="21.99" r="2.992"/>
	<path id="specular_6_" opacity="0.5" fill="#D3FF78" d="M12.964,18.998c0-1.819-0.411-3.294-2.394-3.294s-3.59,1.474-3.59,3.294
		c0,1.819,1.607,3.294,3.59,3.294S12.964,20.817,12.964,18.998z"/>
</g>
<g id="left_x5F_eye_3_">
	<path id="eye_2_" fill="#78B300" d="M40.055,21.99c0-6.064,1.369-10.979,7.978-10.979C54.644,11.011,60,15.926,60,21.99
		c0,6.063-5.356,10.979-11.967,10.979C41.424,32.969,40.055,28.053,40.055,21.99z"/>
	<path id="shadoe_2_" fill="none" stroke="#ACFF00" stroke-linecap="round" stroke-miterlimit="10" d="M48.033,32.969
		c-6.609,0-7.978-4.916-7.978-10.979c0-6.064,1.369-10.979,7.978-10.979"/>
	<circle id="iris_2_" fill="#5A24B2" cx="51.574" cy="21.99" r="2.992"/>
	<path id="specular_3_" opacity="0.5" fill="#D3FF78" d="M47.036,18.998c0-1.819,0.411-3.294,2.394-3.294s3.59,1.474,3.59,3.294
		c0,1.819-1.607,3.294-3.59,3.294S47.036,20.817,47.036,18.998z"/>
</g>
</svg>
